<?xml version="1.0" standalone="no"?><!DOCTYPE svg PUBLIC "-//W3C//DTD SVG 1.1//EN" "http://www.w3.org/Graphics/SVG/1.1/DTD/svg11.dtd"><svg t="1717656012908" class="icon" viewBox="0 0 1024 1024" version="1.1" xmlns="http://www.w3.org/2000/svg" p-id="1455" width="200" height="200" xmlns:xlink="http://www.w3.org/1999/xlink"><path d="M682.666667 938.666667H213.333333a128 128 0 0 1-128-128V341.333333a128 128 0 0 1 128-128h256a42.666667 42.666667 0 0 1 0 85.333334H213.333333a42.666667 42.666667 0 0 0-42.666666 42.666666v469.333334a42.666667 42.666667 0 0 0 42.666666 42.666666h469.333334a42.666667 42.666667 0 0 0 42.666666-42.666666v-256a42.666667 42.666667 0 0 1 85.333334 0v256a128 128 0 0 1-128 128zM896 426.666667a42.666667 42.666667 0 0 1-42.666667-42.666667V170.666667h-213.333333a42.666667 42.666667 0 0 1 0-85.333334h256a42.666667 42.666667 0 0 1 42.666667 42.666667v256a42.666667 42.666667 0 0 1-42.666667 42.666667z" p-id="1456" fill="#1E293B"></path><path d="M426.666667 640a42.666667 42.666667 0 0 1-30.293334-12.373333 42.666667 42.666667 0 0 1 0-60.586667l469.333334-469.333333a42.666667 42.666667 0 1 1 60.586666 60.586666l-469.333333 469.333334A42.666667 42.666667 0 0 1 426.666667 640z" p-id="1457" fill="#1E293B"></path></svg>