<?xml version="1.0" encoding="UTF-8" standalone="no"?>
<svg
   version="1.2"
   width="800"
   height="319"
   viewBox="0 0 800 319"
   stroke-linecap="round"
   stroke-linejoin="round"
   id="svg512"
   sodipodi:docname="borders.svg"
   inkscape:version="1.2.2 (b0a84865, 2022-12-01)"
   xmlns:inkscape="http://www.inkscape.org/namespaces/inkscape"
   xmlns:sodipodi="http://sodipodi.sourceforge.net/DTD/sodipodi-0.dtd"
   xmlns="http://www.w3.org/2000/svg"
   xmlns:svg="http://www.w3.org/2000/svg">
  <defs
     id="defs516" />
  <sodipodi:namedview
     id="namedview514"
     pagecolor="#ffffff"
     bordercolor="#ffffff"
     borderopacity="0.25"
     inkscape:showpageshadow="2"
     inkscape:pageopacity="0.0"
     inkscape:pagecheckerboard="0"
     inkscape:deskcolor="#d1d1d1"
     showgrid="false"
     inkscape:zoom="2.2245889"
     inkscape:cx="579.88242"
     inkscape:cy="102.26609"
     inkscape:window-width="1269"
     inkscape:window-height="741"
     inkscape:window-x="171"
     inkscape:window-y="25"
     inkscape:window-maximized="0"
     inkscape:current-layer="WB_countries_Admin0_10m" />
  <g
     id="WB_countries_Admin0_10m">
    <path
       d="M 675.87 206.62 676.9 206.13 677.22 207.29 675.79 208.8 674.93 206.97 675.87 206.62 Z M 660.61 177.06 660.13 179.23 661.71 181.04 661.4 182.25 663.79 184.15 661.15 184.48 660.67 187.22 657.85 190.05 658.47 191.21 657.06 194.27 654.28 195.52 654.05 194.44 650.89 193.1 649.64 193.86 646.71 192.78 644.42 192.93 643.99 189.45 642.22 188.17 641.3 184.44 643.05 181.66 643.12 182.79 645.06 184.39 647.87 184.05 648.67 183.07 650.54 182.87 651.92 183.55 653.81 183.1 655.95 179.56 656.86 176.64 660.61 177.06 Z M 712.49 192.04 712.5 206.45 708.32 203.03 707.72 201.36 705.25 197.85 701.4 196.29 699.66 196.14 696.12 194.18 695.41 195.26 693.32 192.81 694.89 191.77 690.84 189.65 690.92 188.09 694.17 187.08 696.98 187.88 697.66 189.27 697.46 191.55 699.22 193.66 700.29 193.73 702.36 191.2 705.44 189.57 710.03 191.53 712.49 192.04 Z M 643.63 203.64 636.13 202.7 634.58 200.53 636.06 199.65 639.88 200.1 640.74 201.26 644.62 201.73 645.45 200.58 649.56 201.76 651.15 203.53 653.74 203.63 653.14 205.43 650.92 204.62 649.76 204.99 644.89 204.25 643.63 203.64 Z M 665.66 188.22 665.54 185.84 668.14 183.3 669.62 183.93 674.75 184.42 675.58 185.4 666.83 185.22 666.2 187.74 668.38 189.43 669.33 188.18 672.46 187.97 669.75 190.51 671.29 193.22 671.93 195.41 670.67 196.29 666.99 194.54 666.72 198.48 664.57 198.14 665.17 195.84 663.25 192.43 664.57 190.57 664.51 188.97 665.66 188.22 Z M 623.77 182.24 626.36 183.21 626.63 184.1 629.89 185.59 629.15 187.89 631.37 188.56 632.49 191.34 634.13 191.6 635.11 193.52 634.48 199.19 631.19 198.78 626.79 195.12 624.12 192.01 622.33 188.09 619.65 184.9 618.42 181.99 616.48 180.94 616.35 179.93 611.53 175.58 613.08 174.58 616.12 174.64 617.91 177.24 621.11 179.23 623.77 182.24 Z M 664.23 205.36 661.13 205.6 661.82 204.25 664.23 205.36 Z M 672.71 204.64 669.98 205.96 665.61 205.73 666.61 204.6 671.07 205.41 672.71 204.64 Z M 682.99 186.74 682.42 183.55 683.4 182.24 685.29 183.91 683.65 185.21 682.99 186.74 Z"
       fill-rule="evenodd"
       id="path9" />
    <path
       d="M 626.26 172.42 628.58 174.36 629.31 175.66 629.28 179.72 631.19 183.07 629.13 182.87 624.51 179.83 623.26 177.71 622.44 172.96 621.95 172.01 626.26 172.42 Z M 655.24 175.41 657.58 172.5 659.29 171.42 661 172.12 664.13 174.97 661.87 175.46 660.61 177.06 656.86 176.64 655.95 179.56 653.81 183.1 651.92 183.55 650.54 182.87 648.67 183.07 647.87 184.05 645.06 184.39 643.12 182.79 643.05 181.66 643.67 182.53 645.98 182.95 647.03 180.34 650.43 179.31 652.7 176.09 654 177.37 654.88 175.45 654.98 175.6 655.24 175.41 Z"
       fill-rule="evenodd"
       id="path11" />
    <path
       d="M 245.92 225.06 247.07 228.25 248.17 229.39 247.55 230.79 248.81 233.43 249.54 236.86 251.05 236.84 250.68 239.52 248 241.15 248.34 244.28 246.67 248.14 244.74 251.33 245.17 253.02 243.52 256.17 244.83 259.11 245.2 262.14 244.33 262.9 243.98 266.16 242.52 267.11 242.21 269.81 242.9 271.99 241.79 272.43 240.5 276.49 240.07 281.54 240.97 281.96 240.79 284.65 241.93 286.63 240.85 287.61 241.09 289.71 239.19 292.43 239.09 294.37 237.17 295.51 237.01 297.36 237.97 298.75 239.28 298.38 239.78 300.82 240.58 301.46 244.94 301.49 248.27 302.25 246.76 301.94 243.08 303.2 242.68 305.37 241.19 305.52 237.74 304.23 237.48 301.85 236.18 300.62 234.57 292.1 235.38 289.92 232.19 289.6 235.55 287.73 238.79 285.44 237.83 284.33 238.59 279.28 236.72 278.79 236.08 277.05 237.66 273.23 236.7 269.84 238.18 267.61 238.97 265.07 239.89 264.07 241.2 260.5 241.7 257.99 241.04 254.1 241.98 252.54 241.46 250.39 242.81 247.47 243.85 242.43 243.59 237.36 244.17 237.05 244.7 233.76 243.96 226.9 245.92 225.06 Z M 247.84 307.68 247.82 307.87 243.11 307.59 244.71 306.1 243.9 303.72 247.88 302.89 247.84 307.64 247.84 307.68 Z M 235.22 282.16 235.84 279.2 237.1 279.65 236.24 282.47 235.22 282.16 Z"
       fill-rule="evenodd"
       id="path13" />
    <path
       d="M 245.92 225.06 247.05 222.66 246.11 220.96 246.18 219.43 247.31 217.76 247.09 214.79 247.75 213.98 245.77 210.54 247.9 210.9 252.3 208.22 255.24 208.05 255.13 211.51 257.26 213.88 258.57 213.87 262.9 216.25 265.97 216.89 266.71 222.33 270.4 222.46 270.59 224.53 272.43 226.56 271.08 230.95 269.02 229.01 266.99 229.03 263.1 229.83 261.95 231.87 261.13 235.54 258.25 235.03 256.83 235.49 254.27 235.27 253.17 234.56 251.05 236.84 249.54 236.86 248.81 233.43 247.55 230.79 248.17 229.39 247.07 228.25 245.92 225.06 Z"
       id="path15" />
    <path
       d="M 245.92 225.06 243.96 226.9 241.48 224.57 233.39 220.38 230.91 217.61 231.04 215.87 228.93 213.02 224.91 204.48 222.75 201.32 220.23 199.73 219.89 195.67 221.91 193.8 222.49 195.83 224.86 197.27 226.3 194.01 227.43 192.88 230.02 191.98 232.51 189.61 233.12 186.52 236.77 189.06 238.31 191.64 240.91 191.02 242.9 191.22 244.72 192.29 243.21 194.66 244.91 195.66 242.99 195.54 238.37 197.65 237.89 200.54 236.49 201.57 237.02 204.83 239.45 207.29 239.97 208.45 241.75 208.45 243.32 207.39 243.41 210.67 245.77 210.54 247.75 213.98 247.09 214.79 247.31 217.76 246.18 219.43 246.11 220.96 247.05 222.66 245.92 225.06 Z"
       id="path17" />
    <path
       d="M 251.05 236.84 253.17 234.56 254.27 235.27 256.83 235.49 258.25 235.03 261.13 235.54 264.77 239.02 266.93 239.46 272.42 242.68 269.99 246.44 273.25 247.17 276.41 247.08 278.83 244.56 278.97 242.94 280.5 243.06 281.04 244.36 280.7 246.4 278.47 247.3 276.37 248.82 272.29 253.15 270.99 258.16 270.22 260.9 270.38 262.76 273.33 264.89 273.1 266.41 274.39 267.92 272.33 270.8 269.08 272 265.08 272.62 262.51 272.54 261.82 276.83 258.62 277.46 255.53 277.13 256.44 281.87 255.18 283.03 255.44 284.57 254.05 285.98 251.77 286.49 250.1 288.55 251.96 290.42 253.75 290.55 253.78 292.74 250.25 294.87 249.86 296.56 247.32 297.78 246.68 299.21 248.27 302.25 244.94 301.49 240.58 301.46 239.78 300.82 239.28 298.38 237.97 298.75 237.01 297.36 237.17 295.51 239.09 294.37 239.19 292.43 241.09 289.71 240.85 287.61 241.93 286.63 240.79 284.65 240.97 281.96 240.07 281.54 240.5 276.49 241.79 272.43 242.9 271.99 242.21 269.81 242.52 267.11 243.98 266.16 244.33 262.9 245.2 262.14 244.83 259.11 243.52 256.17 245.17 253.02 244.74 251.33 246.67 248.14 248.34 244.28 248 241.15 250.68 239.52 251.05 236.84 Z M 247.84 307.64 247.88 302.89 249.3 305.03 252.63 306.94 251.41 307.91 247.84 307.64 Z"
       fill-rule="evenodd"
       id="path19" />
    <path
       d="M 475.67 107.82 475.03 108.87 472.41 109.51 472.97 107.86 475.67 107.82 Z"
       id="path21" />
    <path
       d="M 572.46 107.64 574.52 110.78 574.93 112.31 575.39 112.67 575.59 114.26 574.55 115.47 575.56 116.88 579.54 119.38 578.84 119.84 578.76 119.9 577.41 122.39 583.43 125.37 587.48 125.74 590.24 127.41 593.57 127.9 595.23 127.67 595.33 124.56 597.04 125.77 599.11 127.13 604.01 126.79 607.46 126.62 608.8 125.26 612.33 123.68 615.1 124.82 610.85 127.34 610.89 128.61 608.36 133.29 607.16 133.2 606.52 136.68 605.21 137.59 604.72 134.69 603.01 135.42 602.96 135.38 602.03 133.97 604.17 132.21 603.94 130.49 600.31 130.56 599.12 128.88 596.09 127.67 595.23 128.88 596.7 132.47 596.26 133.89 597.42 137.25 596.76 138.53 595 137.9 593.3 138.53 592.86 140.52 591.23 142.17 588.13 143.7 586.37 145.8 582.43 148.55 582.45 149.55 580.25 150.02 577.53 152.37 578.07 157.04 576.78 160.63 577.03 163.29 576 163.41 575.02 165.73 573.29 166.65 571.82 168.39 569.67 166.53 567.43 160.37 565.85 157.79 565.4 155.63 562.81 150.68 561.04 142.32 561.69 140.27 559.83 139.3 557.34 140.4 555.29 139.43 552.83 136.89 553.48 135.68 551.14 133.46 552.34 132.47 555.1 132.74 557.52 131.6 555.31 128.72 555.52 127.51 554.23 126.05 555.92 124.22 557.01 124.91 559.29 124.36 560.45 122.51 561.6 121.98 562.64 119.98 564.76 117.83 565.12 116.03 566.3 114.35 564.04 112.78 563.95 109.48 567.97 109.84 570.79 108.5 570.19 107.31 572.46 107.64 Z"
       id="path23" />
    <path
       d="M 645.35 141.63 646.05 142.59 644.78 144.89 642.96 145.94 640.94 145.28 640.8 143.55 642.29 142.15 645.35 141.63 Z M 669.63 130.4 670.2 130.64 669.1 135 667.38 136.89 666.13 134.99 666.42 133.61 668.35 130.78 669.63 130.4 Z M 695.82 79.74 695.98 79.73 698.04 79.18 698.12 79.19 698.75 80.58 697.38 81.59 696.82 83.8 694.71 86.53 692.2 85.85 690.5 86.79 691.01 90.18 689.34 92.06 689.18 91.94 689.2 92 685.74 93.18 684.15 94.55 681.27 93.71 679.32 95.67 675.69 97.45 669.71 99.69 669.18 98.75 671.1 96.55 669.02 95.58 666.97 97.23 664.97 97.91 663.65 99.57 660.94 99.67 661.75 101.79 663.67 101.88 664.76 104.04 667.64 102.46 670.52 104.34 667.66 105.51 664.24 108.63 666.57 110.27 669.08 114.53 668.93 116.48 670.38 117.79 668.17 118.61 670.4 120.21 670.22 121.4 665.88 126.91 665.02 129.65 662.83 131.85 659.52 134.07 658.23 135.46 653.21 136.31 652.88 136.37 650.39 137.82 646.51 138.58 644.18 139.79 641.92 138.42 639.38 138.68 636.57 137.53 636.45 135.62 634.64 135.54 633.49 134.62 632.15 135.68 626.36 136.66 625.03 137.04 624.24 138.53 621.56 138.16 618.35 132.84 616.59 132.83 616.21 131.46 617.97 129.64 618.91 127.3 618.74 125.19 616.19 123.08 615.73 123.77 613.11 121.22 610.09 121.66 607.14 122.76 605.33 124.44 603.12 124.78 600.08 123.51 598.53 123.95 597.04 125.77 595.33 124.56 590.59 124.5 589.41 123.6 589.34 123.59 588.67 123.2 588.68 123.15 585.13 121.61 584.34 120.65 580.41 118.99 579.54 119.38 575.56 116.88 574.55 115.47 575.59 114.26 575.39 112.67 574.93 112.31 577.44 109.47 577.32 107.76 575.76 106.58 572.46 107.64 570.19 107.31 568.83 106.96 568.41 105.5 565.24 104.26 566.01 103.8 565.75 100.96 563.88 100.92 563.22 98.89 564.04 97.53 567.49 96.26 568.2 97.01 568.29 96.98 570.38 95.42 573.07 95.36 574.39 94.26 577.8 92.81 579.05 90.77 577.47 86.55 582.41 85.41 584.32 81.69 585.99 82.21 589.52 82.04 590.15 79.04 591.89 78.77 593.57 77.54 594.66 77.36 595.1 78.75 597.38 79.96 599.6 80.21 601.73 82.73 601.51 86.18 607.31 86.7 611.42 88.17 613.58 91.59 615.45 91.49 620.5 91.98 625.3 92.09 626.18 92.83 629.91 93.78 633.2 93.8 636.67 92.6 642.69 92.24 644.73 91.53 645.9 90.38 648.12 89.48 646.95 87.88 648.29 86.39 651.89 87.15 653.88 85.73 656.33 85.6 658.47 83.69 662.09 82.79 665.29 83.06 665.33 81.8 662.77 80.02 656.81 80.59 656.06 79.67 658.65 75.9 661.03 76.59 664.48 75.31 664.43 74.18 666.24 71.82 667.73 70.82 666.62 69.16 667.94 68.24 674.01 67.62 678.46 68.73 680.06 70.21 681.37 73.15 683.94 76.53 687.53 77.12 689.35 78.53 690.44 80.65 693.76 80.59 695.82 79.74 Z"
       fill-rule="evenodd"
       id="path25"
       style="fill:rgba(0,0,0,0);stroke:none;stroke-opacity:1" />
    <path
       d="M 478.92 112.64 478.94 113.88 478.83 114.54 478.03 115.97 478.01 115.96 478.6 116.51 477.48 120.8 477.33 120.95 475.92 117.13 476.43 116.31 477.82 112.98 478.92 112.64 Z"
       id="path27" />
    <path
       d="M 476.43 116.31 475.92 117.13 475.81 116.91 476.43 116.31 Z M 478.83 114.54 478.6 116.51 478.01 115.96 478.03 115.97 478.83 114.54 Z"
       fill-rule="evenodd"
       id="path29" />
    <path
       d="M 477.82 112.98 479.73 109.52 481.14 110.52 478.92 112.64 477.82 112.98 Z"
       id="path31" />
    <path
       d="M 475.52 165.33 475.99 162.87 477.47 161.3 478.95 158.42 480.07 158.1 480.97 154.68 483.27 155.01 485.18 154.34 488.9 154.23 490.51 155.03 493.94 158.66 492.54 160.72 492.65 161.98 495.15 161.91 494.95 163.66 497.59 166.37 504.14 168.56 506.35 168.56 499.62 175.4 497.46 175.3 492.85 177.47 490.36 176.79 487.42 178.61 484.46 178.28 481.67 176.46 479.62 176.05 479.37 174.5 477.8 173.82 476.99 171.57 473.54 167.66 475.3 167.57 475.52 165.33 Z"
       id="path33" />
    <path
       d="M 475.32 176.93 470.81 178.32 468.36 178.55 465.38 175.94 462.96 176.8 460.83 175.05 460.23 173.61 458.8 172.89 458.47 171.54 456.21 170.03 453.58 167.03 454.44 166.59 455.6 163.48 457.29 163.2 458.87 165.19 461.83 165.02 464.26 165.04 466.53 163.53 469.24 164.59 471.85 161.8 473.55 162.26 475.15 163.7 475.52 165.33 475.3 167.57 473.54 167.66 476.99 171.57 477.8 173.82 479.37 174.5 479.62 176.05 476.21 176.04 475.32 176.93 Z"
       id="path35" />
    <path
       d="M 492.07 190.04 490.84 188.21 490.84 179.98 492.85 177.47 497.46 175.3 499.62 175.4 506.35 168.56 504.14 168.56 497.59 166.37 494.95 163.66 495.15 161.91 495.85 160.83 498.14 163.11 499.67 163.2 501.53 162.19 502.96 162.59 505 161.53 508.4 161.36 511.43 160.6 513.32 160.79 512.7 165.33 510.48 168.64 508.7 172.67 506.29 176.41 502.03 180.88 498.75 182.83 496.35 184.9 493.28 188.19 492.07 190.04 Z"
       id="path37" />
    <path
       d="M 476.21 176.04 479.62 176.05 481.67 176.46 484.46 178.28 487.42 178.61 490.36 176.79 492.85 177.47 490.84 179.98 490.84 188.21 492.07 190.04 489.05 192.4 487.67 196.03 486.87 196.64 483.73 194.38 483.45 193.03 475.15 188.5 475.13 186.04 476.53 183.85 476.61 183.86 477.54 182.57 477.41 180.79 475.32 176.93 476.21 176.04 Z"
       id="path39" />
    <path
       d="M 551.14 133.46 549.92 133.55 548.91 131.43 547.27 129.57 543.34 130.39 536.52 130.45 537.12 128.14 539.1 127.25 539.06 124.26 537.2 123.05 534.87 120.13 538.49 121.13 542.06 121.18 546.73 120.18 547.11 117.77 549.28 117.14 551.09 115.77 552.96 116.16 554.16 113.01 555.82 112.47 555.17 110.86 557.49 110.86 557.56 109.47 558.79 108.29 557.76 106.47 560.85 104.71 565.24 104.26 568.41 105.5 568.83 106.96 570.19 107.31 570.79 108.5 567.97 109.84 563.95 109.48 564.04 112.78 566.3 114.35 565.12 116.03 564.76 117.83 562.64 119.98 561.6 121.98 560.45 122.51 559.29 124.36 557.01 124.91 555.92 124.22 554.23 126.05 555.52 127.51 555.31 128.72 557.52 131.6 555.1 132.74 552.34 132.47 551.14 133.46 Z"
       id="path41" />
    <path
       d="M 477.5 211.92 476.15 213.31 476.58 215.8 479.47 218.77 479.35 221.74 478.06 222.8 476.22 222.14 476.63 220.11 476.13 218.15 474.87 218.47 473.6 217.32 472.54 216.35 473.98 214.01 473.66 211.57 474.64 209.71 472.97 207.12 475.39 207.28 476.44 208.31 476.68 210.68 477.5 211.92 Z"
       id="path43" />
    <path
       d="M 472.97 207.12 468.63 205.22 468.17 204.43 467.32 202.47 465.92 201.02 465.18 196.14 466.51 195.74 468.34 193.31 467.73 191.6 468.34 189.81 467.55 188.64 475.15 188.5 483.45 193.03 483.73 194.38 486.87 196.64 485.96 199.64 487.48 201.47 487.07 204.69 488.18 208.28 489.64 209.48 488.68 210.23 482.97 212.25 477.5 211.92 476.68 210.68 476.44 208.31 475.39 207.28 472.97 207.12 Z"
       id="path45" />
    <path
       d="M 493.89 104.07 491.8 105.36 491.32 109.25 490.2 110.22 485.95 112.35 481.62 114.69 478.94 113.88 478.92 112.64 481.14 110.52 479.73 109.52 479.6 106.71 484.65 104.52 488.15 104.88 490.24 104.09 493.89 104.07 Z"
       id="path47" />
    <path
       d="M 278.94 181.13 280.32 178.28 279.23 175.4 279.92 174.43 280.42 173.55 282.53 174.19 284.89 176.11 285.44 177.33 283.16 181.05 280 181.6 278.94 181.13 Z M 405.59 73.1 406.18 73.91 409.14 74.94 409.31 75.62 412.84 76.54 414.07 76.72 418.15 77.8 416.79 79.73 416.82 80.86 414.25 82.69 415.57 84.54 415.16 87.69 416.63 89.26 416.49 89.37 416.42 89.33 416.33 89.42 414.65 90.63 412.8 90.73 408.73 89.84 406.74 91.15 407.05 92.28 403.78 92.12 403.17 91.92 399.91 91.72 396.02 90.16 396.73 89.73 397.68 84.29 396 83.26 395.58 82.04 393.89 80.74 390.17 80 389.53 78.68 393.15 78.01 394.16 78.75 396.67 78.53 395.98 76.2 399.51 77.11 400.52 76.11 402.6 75.6 403.5 73.59 405.59 73.1 Z M 418.99 92.77 421.02 91.39 420.42 94.47 418.99 92.77 Z"
       fill-rule="evenodd"
       id="path49" />
    <path
       d="M 278.94 181.13 278.04 180.54 275.61 181.11 274.8 181.98 274.3 181.78 271.28 177.08 273.1 174.13 273.75 172.96 278.59 173.02 279.92 174.43 279.23 175.4 280.32 178.28 278.94 181.13 Z"
       id="path51" />
    <path
       d="M 274.8 181.98 273.42 181.8 268.68 183.23 267 180.31 268.04 177.57 265.36 174.75 263.94 173.2 264.33 171.67 266.07 170.9 265.38 169.61 266.95 167.32 268.85 168.43 271.28 171.17 273.28 172.8 273.1 174.13 271.28 177.08 274.3 181.78 274.8 181.98 Z"
       id="path53" />
    <path
       d="M 684.54 100.71 686.68 103.69 686.96 107.6 686.38 108.4 683.36 108.86 682.22 109.97 680.48 110.31 680.1 108.15 680.92 106.83 680.37 105.09 680.78 102.48 681.87 101.41 684.54 100.71 Z"
       id="path55" />
    <path
       d="M 684.54 100.71 681.87 101.41 680.78 102.48 677.11 102.3 676.83 101.31 677.58 98.57 675.69 97.45 679.32 95.67 681.27 93.71 684.15 94.55 685.74 93.18 689.2 92 689.18 91.94 689.34 92.06 689.72 92.58 687.48 94.01 687.62 95.65 682.67 98.23 682.34 99.35 684.54 100.71 Z"
       id="path57" />
    <path
       d="M 388.03 106.69 388.16 106.86 390.3 108.41 393.47 108.01 393.54 108.13 395.07 108.54 396.04 109.28 397.23 115.21 394.42 115.09 391.89 116.17 391.92 118.24 390.31 118.69 387.24 120.67 383.11 121.17 380.75 122.77 380.75 125 370.79 125 374.54 123.53 376.56 122.05 378.6 119.54 378.17 116.71 379.47 114.11 381.09 112.58 384.88 110.87 386.9 106.98 388.03 106.69 Z"
       id="path59" />
    <path
       d="M 214.59 162.07 216.96 165.06 216.24 168.48 214.38 167.17 214.62 166.26 211.88 164.52 210.17 164.33 210.03 161.73 214.59 162.07 Z"
       id="path61" />
    <path
       d="M 210.03 161.73 208.27 160.23 206.45 157.52 209.76 155.6 212.09 153.48 212.73 153.89 215.73 153.06 214.32 158.48 214.59 162.07 210.03 161.73 Z"
       id="path63" />
    <path
       d="M 441.29 178.58 440.06 181.49 439.34 187.44 437.33 189.08 435.98 191 435.93 193.73 435.21 195.02 432.88 196.95 431.85 195.76 428.98 196.55 426.62 197.4 424.64 195 426.22 194.14 425.62 191.48 431.54 191.43 432.14 187.68 430.75 185.84 432.07 184.26 431.44 183.22 429.37 183.57 429.47 181.49 432.28 181.39 434.95 182.05 435.9 181.32 436.73 178.6 438.42 178.26 441.29 178.58 Z"
       id="path65" />
    <path
       d="M 441.29 178.58 441.5 176.58 443.71 174.9 445.67 176.51 449.86 177.03 454.22 174.96 456.71 174.37 458.66 175.07 460.83 175.05 462.96 176.8 465.38 175.94 468.36 178.55 468.11 180.87 469.25 181.74 466.34 184.54 465.56 189.35 463.97 191.64 464.32 192.31 465.18 196.14 465.92 201.02 467.32 202.47 468.17 204.43 464.1 205.05 462.89 206.74 463.55 208.04 463.17 212.55 464.35 213.7 466.06 213.22 465.56 215.58 464.66 216.04 463 214.02 460.78 212.69 457.62 212.65 456.03 211.09 453.89 211.55 453.13 210.37 451.02 210.88 448.44 207.59 448.29 202.41 445.49 202.42 443.27 201.79 442.9 204.01 438.87 204.04 437.67 202.45 436.79 199.4 429.22 199.25 427.07 199.05 428.98 196.55 431.85 195.76 432.88 196.95 435.21 195.02 435.93 193.73 435.98 191 437.33 189.08 439.34 187.44 440.06 181.49 441.29 178.58 Z"
       id="path67" />
    <path
       d="M 603.12 124.78 604.01 126.79 599.11 127.13 597.04 125.77 598.53 123.95 600.08 123.51 603.12 124.78 Z"
       id="path69" />
    <path
       d="M 484.71 81.93 479.58 82.93 477.17 84 478.8 86.32 475.27 87.95 474.52 86.74 472.1 85.57 470.98 82.98 468.7 83.04 466.48 84.71 465.74 86.11 462.51 85.56 464.73 83.58 464.86 83.5 465.48 81.69 463.84 79.69 461.52 78.94 459 79.37 456 80.17 451.78 79.96 451.63 79.86 450.71 80.06 449.06 79.05 449.96 77.57 451.21 75.61 453.44 74.32 452.33 72.15 454.07 71.35 457.12 71.24 464.94 72.47 467.64 71.96 468.63 70.91 470.41 70.86 474.93 70.29 476.27 72.73 477.8 72.89 479.13 74.75 482.98 74.57 486.86 75.82 488.13 77.96 488.13 80.31 486.18 80.25 484.71 81.93 Z"
       id="path71" />
    <path
       d="M 452.33 72.15 452.96 68.53 452.06 66.78 454.04 66.9 456.67 65.98 458.95 62.96 462.4 61.9 467.54 62.68 468.54 63.53 469.44 66.14 469.64 68.42 469.51 68.57 470.41 70.86 468.63 70.91 467.64 71.96 464.94 72.47 457.12 71.24 454.07 71.35 452.33 72.15 Z"
       id="path73" />
    <path
       d="M 436.55 249.58 433.9 246.81 432.08 239.8 432.16 236.23 429.68 232.39 429.16 230.93 426.27 226.47 426.08 224.5 429.62 223.86 430.91 224.84 440.89 224.8 441.59 225.6 446.12 226.23 451.83 225.36 453.69 225 455.99 225.7 446.49 226.86 446.52 234.94 444.29 235.02 444.29 241.11 444.3 249.18 442.3 250.43 439.03 249.98 437.45 248.49 436.55 249.58 Z"
       id="path75" />
    <path
       d="M 444.29 241.11 446.2 244.17 445.68 245.4 448.07 245.77 450.36 243.84 451 242.35 454.97 243.5 456.72 243.04 457.34 241.11 459.52 240 459.86 238.66 462.82 236.31 465.06 235.43 469.36 235.9 470.9 240.39 470.82 243.79 468.98 243.68 468.24 245.47 469.06 246.55 471.19 245.74 472.91 245.75 471.77 249.53 469.13 251.77 467.37 254.62 463.28 258.42 460.07 260.55 457.53 260.96 455.1 262.02 450.16 261.59 448.11 262.47 445.5 262.61 444.23 263.39 440.95 261.38 439.57 259.01 440.51 258.61 440.28 256.42 438.31 253.51 436.55 249.58 437.45 248.49 439.03 249.98 442.3 250.43 444.3 249.18 444.29 241.11 Z M 464.24 250.32 463.54 249.63 461.51 250.32 460.39 251.74 460.66 253.43 462.19 254.18 464.6 252.56 464.24 250.32 Z"
       fill-rule="evenodd"
       id="path77" />
    <path
       d="M 260.31 146.33 260.11 146.26 260.31 146.13 260.31 146.33 Z"
       id="path79" />
    <path
       d="M 260.11 146.26 260.31 146.33 260.13 146.32 260.11 146.26 Z"
       id="path81" />
    <path
       d="M 524.98 130.94 526.69 133.21 530.31 134.19 532.54 137.1 529.72 141.05 528.25 141.39 527.92 144.31 525.6 145.08 525.38 146.07 522.9 146.75 521.98 148.59 519.75 148.65 517.68 149.41 515.22 144.2 521.87 141.98 523.33 137.59 522.33 135.98 523.71 132.36 524.98 130.94 Z"
       id="path83" />
    <path
       d="M 557.29 97.14 556.15 95.39 553.39 96.46 551.88 98.67 550.21 98.5 551.53 101.71 550.25 103.89 547.45 103.5 547.53 102.04 545.42 101.57 542.13 99.96 538.44 97.64 537.16 95.17 533.92 94.93 532.7 92.56 529.92 91.5 526.24 93.53 526.37 94.89 524.09 94.74 524.08 86.6 529.86 85.37 535.3 87.96 537.49 89.95 543.76 89.44 546.52 91.04 546.34 93.24 547.83 95.01 550.59 95.01 551.76 96.37 553.05 94.61 557.27 92.68 555.54 94.17 556.87 94.92 559.98 95.08 560.42 96.81 557.29 97.14 Z"
       id="path85" />
    <path
       d="M 593.57 77.54 591.89 78.77 590.15 79.04 589.52 82.04 585.99 82.21 584.32 81.69 582.41 85.41 577.47 86.55 579.05 90.77 577.8 92.81 574 91.29 566.65 91.35 564.61 90.54 562.73 91.93 559.26 91.39 557.27 92.68 553.05 94.61 551.76 96.37 550.59 95.01 547.83 95.01 546.34 93.24 546.52 91.04 543.76 89.44 537.49 89.95 535.3 87.96 529.86 85.37 524.08 86.6 524.09 94.74 522.87 94.81 521.34 93.13 519.8 92.47 516.24 93.79 516.92 91.78 515.12 91.38 512.71 88.38 513.93 85.85 516.52 85.7 517.68 84.33 517.67 82.48 515.8 82.59 513.52 81.89 509.12 83.65 506.5 80.45 504.57 80.45 503.64 77.92 503.96 75.91 505.42 74.51 507.33 75.93 508.24 74.19 511.55 72.62 512.49 71.72 514.49 72.3 518.84 72.44 523.38 74.34 525.26 73.15 529.25 72.96 530.62 74.01 532.5 74.33 536.04 73.78 536.27 72.35 534.14 71.93 535.31 70.34 535.23 67.46 536.28 66.64 539.84 66.46 551.1 64.53 553.22 63.55 555.6 64.14 556.64 63.75 558.44 66.41 561.72 66.39 564.51 67.54 567.67 66.43 569.63 66.74 572.6 68.26 577.31 73.77 578.85 72.63 581.93 73.93 584.95 73.31 589 76.44 591.99 75.96 593.57 77.54 Z"
       id="path87" />
    <path
       d="M 557.29 97.14 553.65 97.69 553.58 98.68 558.4 98.52 560.3 99.15 563.22 98.89 563.88 100.92 565.75 100.96 566.01 103.8 562.43 103.29 558.74 104.96 558.71 102.32 557.33 101.05 555.53 102.34 550.76 104.46 550.25 103.89 551.53 101.71 550.21 98.5 551.88 98.67 553.39 96.46 556.15 95.39 557.29 97.14 Z"
       id="path89" />
    <path
       d="M 458.95 62.96 456.67 65.98 454.04 66.9 452.06 66.78 450.47 65.86 450.56 64.67 447.14 63.88 446.67 62.06 448.98 61.29 456.86 61.9 458.95 62.96 Z"
       id="path91" />
    <path
       d="M 272.29 253.15 276.37 248.82 278.47 247.3 280.7 246.4 281.04 244.36 280.5 243.06 278.97 242.94 279.76 239.56 277.2 239.4 276.1 235.7 271.46 235.1 271.74 232.2 271.08 230.95 272.43 226.56 270.59 224.53 270.4 222.46 266.71 222.33 265.97 216.89 262.9 216.25 258.57 213.87 257.26 213.88 255.13 211.51 255.24 208.05 252.3 208.22 247.9 210.9 245.77 210.54 243.41 210.67 243.32 207.39 241.75 208.45 239.97 208.45 239.45 207.29 237.02 204.83 236.49 201.57 237.89 200.54 238.37 197.65 242.99 195.54 244.91 195.66 246.16 188.9 244.67 186.56 245.17 182.58 248.9 182.47 250.73 181.65 251.76 183.57 252.93 184.6 257.95 182.63 257.64 179.36 257.99 177.61 263.58 176.84 265.36 174.75 268.04 177.57 267 180.31 268.68 183.23 273.42 181.8 274.8 181.98 275.61 181.11 278.04 180.54 278.94 181.13 280 181.6 283.16 181.05 285.44 177.33 286.74 178.8 288.13 182.26 289.21 183.9 286.5 186.39 284.46 189.87 287.34 188.56 288.34 190.65 292.85 189.19 294.52 187.56 296.67 188.08 301.31 190.37 301.65 191.93 303.99 191.48 305.9 192.38 308.36 192.75 311.37 192.59 314.3 194.42 317.58 197.16 321.28 197.67 322.87 202.14 322.83 203.79 321.74 206.65 319.3 209.55 318.2 210.14 315.06 214.94 313.41 215.96 313.85 221.38 313.14 225.27 311.94 227.3 311.98 229.29 308.96 233.96 309.19 234.9 306.97 236.2 306.77 237.13 301.5 237.23 299.12 239.09 298.33 238.91 293.99 241.43 292.24 243.97 292.35 248 291.79 249.66 289.59 251.51 288.47 253.76 286.68 253.31 285.97 255.13 284.28 256.57 283.36 259.61 281.68 261.03 282.24 258.84 278.99 256 275.84 254.51 274.02 252.97 272.29 253.15 Z M 292.57 187.56 291.74 189.47 288.27 190.34 287.44 187.74 288.35 186.51 292.65 186.86 292.57 187.56 Z"
       fill-rule="evenodd"
       id="path93" />
    <path
       d="M 281.68 261.03 280.82 262.47 278.22 263.75 275.71 263.6 273.38 262.63 271.83 262.65 270.57 261.47 270.99 258.16 272.29 253.15 274.02 252.97 275.84 254.51 278.99 256 282.24 258.84 281.68 261.03 Z"
       id="path95" />
    <path
       d="M 658.65 75.9 656.06 79.67 656.81 80.59 662.77 80.02 665.33 81.8 665.29 83.06 662.09 82.79 658.47 83.69 656.33 85.6 653.88 85.73 651.89 87.15 648.29 86.39 646.95 87.88 648.12 89.48 645.9 90.38 644.73 91.53 642.69 92.24 636.67 92.6 633.2 93.8 629.91 93.78 626.18 92.83 625.3 92.09 620.5 91.98 615.45 91.49 613.58 91.59 611.42 88.17 607.31 86.7 601.51 86.18 601.73 82.73 599.6 80.21 597.38 79.96 595.1 78.75 594.66 77.36 597.1 76.57 597.15 76.63 598.88 75.64 604.6 73.64 608.89 74.26 609.75 75.48 612.51 75.48 615.69 76.12 617.47 75.37 616.8 73.29 619.2 70.8 621.68 71.67 626.21 72.45 626.83 74.3 629.8 75.22 633.48 74.46 636.42 74.79 639.28 75.66 640.59 77 645.45 77.42 650.58 76.42 653.33 74.9 655.73 75.74 658.65 75.9 Z"
       id="path97" />
    <path
       d="M 612.73 6.38 614.96 7.04 615.43 8.53 607.69 9.05 605.05 8.7 606.27 6.85 612.73 6.38 Z M 538 7.3 535.32 8.15 532.19 8.09 532.32 7.2 538 7.3 Z M 616.73 8.76 619.89 8.94 621.32 9.61 620.35 11.66 616 11.67 610.62 11.18 608.03 9.69 610.57 8.82 616.73 8.76 Z M 628.16 10.65 630.51 10.98 632.28 12.74 624.35 13.05 620.59 13.61 622.56 11.8 625.09 10.51 628.16 10.65 Z M 689.72 92.58 689.34 92.06 691.01 90.18 690.5 86.79 692.2 85.85 694.71 86.53 696.82 83.8 697.38 81.59 698.75 80.58 698.12 79.19 698.04 79.18 695.98 79.73 695.82 79.74 693.76 80.59 690.44 80.65 689.35 78.53 687.53 77.12 683.94 76.53 681.37 73.15 680.06 70.21 678.46 68.73 674.01 67.62 667.94 68.24 666.62 69.16 667.73 70.82 666.24 71.82 664.43 74.18 664.48 75.31 661.03 76.59 658.65 75.9 655.73 75.74 653.33 74.9 650.58 76.42 645.45 77.42 640.59 77 639.28 75.66 636.42 74.79 633.48 74.46 629.8 75.22 626.83 74.3 626.21 72.45 621.68 71.67 619.2 70.8 616.8 73.29 617.47 75.37 615.69 76.12 612.51 75.48 609.75 75.48 608.89 74.26 604.6 73.64 598.88 75.64 597.15 76.63 597.1 76.57 594.66 77.36 593.57 77.54 591.99 75.96 589 76.44 584.95 73.31 581.93 73.93 578.85 72.63 577.31 73.77 572.6 68.26 569.63 66.74 567.67 66.43 564.51 67.54 561.72 66.39 558.44 66.41 556.64 63.75 555.6 64.14 553.22 63.55 551.1 64.53 539.84 66.46 536.28 66.64 535.23 67.46 535.31 70.34 534.14 71.93 536.27 72.35 536.04 73.78 532.5 74.33 530.62 74.01 529.25 72.96 525.26 73.15 523.38 74.34 518.84 72.44 514.49 72.3 512.49 71.72 511.55 72.62 508.24 74.19 507.33 75.93 505.42 74.51 503.96 75.91 503.64 77.92 504.57 80.45 506.5 80.45 509.12 83.65 508.04 84.54 505.53 85.17 503.52 87.81 505.3 89.29 505.21 90.97 507.68 93.58 506.11 94.99 502.92 93.48 499.44 91.55 497.09 91.58 494.77 90.63 492.1 90.52 490.11 89.82 488.64 90.16 486.4 88.47 483.08 87.3 482.37 85.87 484.9 83.89 484.71 81.93 486.18 80.25 488.13 80.31 488.13 77.96 486.86 75.82 482.98 74.57 479.13 74.75 477.8 72.89 476.27 72.73 474.93 70.29 470.41 70.86 469.51 68.57 469.64 68.42 469.44 66.14 468.54 63.53 467.54 62.68 462.4 61.9 460.63 58.83 461.34 57.98 460.76 56.12 462.11 54.51 464.32 52.92 463.34 51.85 461.64 52.13 464.73 50.6 469.21 47.84 469.11 46.21 466.01 42.73 466.67 40.46 464.48 38.21 466.31 36.72 463.09 34.43 464.18 33.36 468.36 31.63 471.05 31.28 472.84 32.61 479.73 33.03 490.92 36.3 491.28 38.27 487.21 39.77 484.07 39.87 478.43 39.14 477.15 38.71 476.73 41.72 477.61 43.56 482.99 44.96 482.03 41.9 487.12 43.06 489.5 42.45 488.28 40.94 491.64 39.93 493.55 38.89 495.88 39.1 497.63 39.89 498.6 37.95 497.07 37.09 498.08 35.07 500.43 34.43 500.53 36.23 501.64 38.1 505.79 37.85 506.06 36.52 518.45 33.6 520.23 35.17 524.03 34.19 527.08 34.38 530.51 33.41 531.03 34.74 534.03 34.03 533.52 31.95 535.05 31.5 540.56 31.93 548.5 33.69 551.28 34.85 552.78 34.22 550.95 32.25 548.01 31.78 549.24 29.62 548.35 28.33 551.79 27.14 552.93 25.21 554.92 24.82 560.7 25.03 561.52 26.17 559.83 28.35 561.43 29.24 560.76 31.23 560.88 33.55 563.01 34.35 562.27 35.93 560.5 36.79 560.69 38.69 563.75 37.84 565.65 36.33 564.58 33.1 563.07 31.9 564.73 30.05 563.05 28.42 562.98 27.17 566.75 27.27 574 25.87 575.98 25.92 581.18 27.44 582.17 26.14 578.89 25.57 578.61 23.26 585.06 23.11 592.37 22.56 592.05 20.8 592.9 19.76 594.87 19.9 597.79 19.01 605.84 18.37 607.67 17.62 612.52 17.61 616.84 17.94 620.58 16.87 623.55 16.72 623.79 15.72 626.45 14.81 630.58 14.07 633.49 14.5 634.84 15.7 637.74 15.68 639.28 16.28 646.25 16.22 651.5 17.58 651.82 19.5 650.22 20.14 643.83 21.51 639.55 23.15 638.78 24.18 644.06 23.41 643.88 22.31 647.83 22.91 654.2 23.25 655.83 22.98 662.56 23.25 662.59 24.09 667.18 24.84 671.46 24.52 673.24 23.31 675.61 22.77 678.4 23.65 679.8 23.33 683.71 23.51 685.09 25.7 686.52 25.75 686.5 27.77 687.52 28.75 690.18 29.53 691.59 29.24 694.19 26.89 697.41 28.17 701.43 27.58 704.58 28.21 707.58 27.56 709.71 27.98 709.32 25.67 713.77 25.06 722.32 25.54 725.69 26.08 731.64 26.44 732.76 27.85 736.1 28.33 737.4 29.25 740.62 29.3 745.66 28.77 751.39 29.06 753.98 29.72 753.98 31.45 757.93 32.54 760 31.92 763.59 31.7 765.38 32.16 770.05 32.31 771.68 31.71 773.04 32.88 776 33.91 778.82 33.43 778.19 30.95 784.3 31.67 789.03 31.48 797.36 32.82 799 33.46 799 42.13 795.19 43.71 798.13 47.36 796.65 48.12 793.03 47.64 786.79 49.34 784.69 49.48 781.28 51.46 778.63 52.22 777.72 53.43 774.99 52.1 772.61 52.09 769.98 52.71 768.68 52.31 765.32 53.82 762.76 53.24 761.49 55.56 759.09 57.59 760.95 59.15 762.13 61.82 759.42 61.93 758.61 63.09 759.39 64.94 756.31 65.46 754.78 66.26 753.85 68.3 751.38 69.43 751.45 70.42 747.4 73.55 744.81 63.8 746.08 60.38 749.06 58.22 752.5 56.87 754.37 55.26 758.96 52.43 762.08 51.59 763.38 50.62 763.66 47.47 761.91 47.77 761.3 49.4 755.51 51.8 754.56 51.27 754.75 49.27 749.21 49.39 747.31 49.98 745.42 51.74 741.86 53.65 741.47 55.46 739.97 55.04 738.55 55.77 735.51 55.89 736.13 54.5 731.61 53.89 729.81 55.05 724.61 54.55 717.34 54.79 715.35 55.3 712.34 56.94 711.43 58.13 707.37 60.05 706.23 61.24 700.43 64.24 700.91 65.38 703.23 65.2 702.98 67.07 705.72 67.57 709.93 66.17 713.51 68.54 713.23 71 711.32 74.31 711.58 76.45 710.7 78.95 707.09 82.19 706.12 83.87 700.7 88.43 699.56 89.89 695.17 91.71 692.08 90.37 689.72 92.58 Z M 551.08 15.77 551.37 17.29 537.5 19.13 534.24 20.42 528.93 22.01 525.75 24.02 521.96 23.58 523.9 20.88 526.45 19.25 535.39 17.29 541.94 17.21 548.39 15.81 551.08 15.77 Z M 708.36 17.7 712.25 18.49 713.36 17.51 715.98 18.22 721 18.7 720.73 19.77 715.56 20.52 714.42 20.13 708.15 20.89 704.01 19.83 704.12 18.38 706.21 17.65 708.36 17.7 Z M 725.25 19.05 728.97 19.19 728.45 20.56 725.25 19.05 Z M 522.59 23.81 523.32 25.43 522.72 26.8 524.37 28.41 522.28 29.98 519.38 29.38 518.28 28.25 514.96 27.98 517.83 24.22 522.59 23.81 Z M 3.8 27.72 1 29.01 1 27.8 3.8 27.72 Z M 511.44 32.99 507.71 34.02 507.07 32.81 509.22 32.29 511.44 32.99 Z M 1.64 33.6 8.76 35.88 11.45 36.37 13.33 38.89 15.08 37.59 18.97 37.91 22.83 39.51 21.98 40.91 17.87 41.32 16.28 43.96 12.85 42.89 11.17 42.79 10.07 41.39 2.6 40.88 1 42.13 1 33.46 1.64 33.6 Z M 450.47 65.86 443.47 65.64 446.38 63.81 446.53 63.83 447.14 63.88 450.56 64.67 450.47 65.86 Z M 716.63 66.03 717.63 68.53 717.34 71.36 719.83 77.17 717.37 77.18 715.98 79.9 717.74 83.13 714.37 83.04 715.19 80.02 714.59 78.59 715.36 73.13 713.97 71.34 714.57 68.7 716.54 67.32 716.63 66.03 Z"
       fill-rule="evenodd"
       id="path99" />
    <path
       d="M 432.83 73.61 438.07 74.67 441.75 76.6 437.56 78.6 433.21 77.71 432.49 78.66 430.62 78.24 427.45 76.08 427.73 74.65 432.13 73.26 432.83 73.61 Z"
       id="path101" />
    <path
       d="M 430.62 78.24 428.25 79.67 428.25 80.68 422.84 81.49 421.16 80.97 418.97 80.38 416.82 80.86 416.79 79.73 418.15 77.8 414.07 76.72 413.56 75.24 413.29 73.85 413.73 72.17 415.62 70.27 415.95 68.32 419.64 67.02 419.2 64.66 420.92 64.85 424.77 66.61 427.71 65.6 431.62 67.31 431.37 69.25 432.46 69.8 432.83 73.61 432.13 73.26 427.73 74.65 427.45 76.08 430.62 78.24 Z"
       id="path103" />
    <path
       d="M 453.88 58.08 452.08 56.3 453.38 54.7 457.84 54.28 462.11 54.51 460.76 56.12 461.34 57.98 460.63 58.83 458.92 58.86 456.16 57.72 453.88 58.08 Z"
       id="path105" />
    <path
       d="M 460.63 58.83 462.4 61.9 458.95 62.96 456.86 61.9 448.98 61.29 446.67 62.06 446.69 60.34 448.1 58.77 450.07 58.32 452.52 60.08 454.04 59.49 453.88 58.08 456.16 57.72 458.92 58.86 460.63 58.83 Z"
       id="path107" />
    <path
       d="M 445.71 33.34 444.18 34.86 440.28 34.45 435.75 36.91 436.39 37.73 432.23 39.79 432.17 41.58 430.24 43.2 430.9 44.47 428.11 44.59 426.58 46.07 427.3 48.41 428.54 50.32 427.73 53.1 426.47 53.57 425.35 55.59 421.68 55.46 418.01 57.56 415.35 57.64 412.21 56.17 413.37 54.74 411.79 52.95 411.06 50.23 412.04 48.51 413.14 48.49 416.12 46.68 417.68 46.76 421.5 45.28 425.27 42.45 427.65 42.08 429.38 38.46 431.53 37.89 432.79 36.69 435.93 35.73 440.57 32.34 444.71 31.33 446.93 31.48 448.74 30.49 450.91 30.74 456.23 29.04 456.39 30.45 458.99 29.1 462.49 28.8 466.49 29.62 466.8 31.04 468.36 31.63 464.18 33.36 464.57 31.93 461.84 31.05 457.7 31.88 456.86 33.68 455.11 34.39 453.04 33.83 449.72 34.06 448.02 32.84 445.71 33.34 Z M 454.14 13.87 450.33 15.17 447.79 13.8 448.09 13.01 454.14 13.87 Z M 444.8 12.07 442.1 12.45 440.33 14.61 438.75 15.02 436.78 16.63 431.86 15.26 428.84 13.03 426.34 12.05 423.74 10.02 426.21 9.39 430.58 9.31 433.83 9.89 435.64 8.99 438.93 9.28 443.86 10.9 444.8 12.07 Z M 460.23 8.89 456.85 10.38 450.82 10.77 449.69 10.36 446.14 10.43 445.39 9.74 441.64 9.66 444.36 8 446.29 8.58 449.78 8.07 459.42 8.66 460.23 8.89 Z"
       fill-rule="evenodd"
       id="path109" />
    <path
       d="M 445.71 33.34 452.26 35.69 453.56 40.46 450.27 40.59 447.12 42.38 447.64 43.49 446.08 44.77 441.26 46.32 438.48 48.14 438.23 51.37 442 53.58 439.75 55.77 437.22 56.44 436.5 60.12 435.55 61.65 432.55 61.89 431.43 63.57 429.44 63.67 427.93 60.4 424.95 56.72 425.35 55.59 426.47 53.57 427.73 53.1 428.54 50.32 427.3 48.41 426.58 46.07 428.11 44.59 430.9 44.47 430.24 43.2 432.17 41.58 432.23 39.79 436.39 37.73 435.75 36.91 440.28 34.45 444.18 34.86 445.71 33.34 Z"
       id="path111" />
    <path
       d="M 464.18 33.36 463.09 34.43 466.31 36.72 464.48 38.21 466.67 40.46 466.01 42.73 469.11 46.21 469.21 47.84 464.73 50.6 461.64 52.13 459.97 52.15 451.27 53.61 450.16 52.53 447.59 52.01 447.3 48.14 447.65 46.25 451.81 44.72 454.91 42.58 456.2 41.21 453.56 40.46 452.26 35.69 445.71 33.34 448.02 32.84 449.72 34.06 453.04 33.83 455.11 34.39 456.86 33.68 457.7 31.88 461.84 31.05 464.57 31.93 464.18 33.36 Z"
       id="path113" />
    <path
       d="M 638.34 153.7 638.05 150.98 632.13 144.65 630.22 143.48 632.65 141.77 630.66 139.85 628.57 140.05 628.2 138.12 626.36 136.66 632.15 135.68 633.49 134.62 634.64 135.54 636.45 135.62 636.57 137.53 639.38 138.68 638.05 139.14 635.02 141.97 634.19 144.42 636.13 146.51 636.66 147.87 639.74 150.35 641.36 152.3 642.65 157.67 641.66 161.12 637.91 163.15 636.71 163.25 636.24 164.9 632.25 166.74 632.51 164.46 631.53 163.2 635.11 161.7 635 160.2 638.32 158.93 638.34 153.7 Z"
       id="path115" />
    <path
       d="M 638.34 153.7 638.32 158.93 635 160.2 635.11 161.7 631.53 163.2 628.53 162.06 628.13 160.48 626.83 156.87 628.51 154.61 633.16 154.5 636.72 154.55 638.34 153.7 Z"
       id="path117" />
    <path
       d="M 413.56 75.24 414.07 76.72 412.84 76.54 413.56 75.24 Z"
       id="path119" />
    <path
       d="M 524.75 129.51 524.98 130.94 523.71 132.36 522.33 135.98 516.56 135.48 514.31 132.54 519.38 132.97 520.55 132.55 524.3 128.54 524.75 129.51 Z"
       id="path121" />
    <path
       d="M 405.59 73.1 407.42 72.46 409.36 72.48 409.45 72.48 410.56 72.2 413.29 73.85 413.56 75.24 412.84 76.54 409.31 75.62 409.14 74.94 406.18 73.91 405.59 73.1 Z"
       id="path123" />
    <path
       d="M 488.64 90.16 490.11 89.82 492.1 90.52 494.77 90.63 497.09 91.58 499.44 91.55 502.92 93.48 502.62 94.32 499.76 94.81 496.29 95.21 494.35 94.19 492.04 94.31 491.99 91.81 488.64 90.16 Z"
       id="path125" />
    <path
       d="M 445.59 93.51 447.8 92.69 449.53 92.54 450.8 94.71 446.47 95.78 445.59 93.51 Z"
       id="path127" />
    <path
       d="M 445.59 93.51 446.47 95.78 445.75 97.47 444.33 98.34 442.8 96.24 442.93 93.56 444.48 92.02 445.59 93.51 Z"
       id="path129" />
    <path
       d="M 499.76 94.81 502.62 94.32 502.92 93.48 506.11 94.99 507.68 93.58 510.6 96.85 508.54 99.47 508.34 101.13 506.06 98.36 503.11 100.14 499.76 94.81 Z M 502.27 100.18 500.72 99.87 499.32 98.46 499.25 98.32 501.45 99.09 502.27 100.18 Z"
       fill-rule="evenodd"
       id="path131" />
    <path
       d="M 444.48 92.02 445.1 91.4 446.19 90.64 447.8 92.69 445.59 93.51 444.48 92.02 Z"
       id="path133" />
    <path
       d="M 496.29 95.21 496.79 97.42 499.25 98.32 499.32 98.46 497.59 99.02 498.02 102.37 499.23 104 494.81 103.48 493.89 104.07 490.24 104.09 488.15 104.88 484.65 104.52 479.6 106.71 479.33 105.82 477.08 104.72 474.36 106.21 472.71 106.47 470.99 105.32 468.02 104.55 467.48 106 465 105.98 464.5 105.05 460.4 103.57 459.88 100.17 457.97 97.79 459.26 96.77 463.48 96.86 464.8 94.92 469.27 95.22 471.52 93.85 473.87 93.19 477.14 93.32 479.56 93.88 483.14 95.35 484.97 95.63 487.4 95.2 488.98 95.62 492.04 94.31 494.35 94.19 496.29 95.21 Z M 462.1 93.29 462.32 94.09 460.24 96.26 457.73 96.03 458.37 93.87 460.46 93.03 462.1 93.29 Z"
       fill-rule="evenodd"
       id="path135" />
    <path
       d="M 396.02 90.16 399.91 91.72 403.17 91.92 403.21 92.27 403.78 92.12 407.05 92.28 406.98 93.58 404.57 94.84 402.2 95.36 399.28 98.74 399.24 101.07 397.95 103.08 395.79 104.42 390.24 104.92 388.17 106.21 388.12 106.21 386.62 106.11 385.59 104.4 383.56 103.88 383.79 98.87 384.75 97.64 384.89 95.33 386.24 94.19 384.16 93.26 380.6 93.3 379.57 90.67 382.53 89.33 383.97 89.76 392.12 89.87 396.02 90.16 Z"
       id="path137" />
    <path
       d="M 626.36 136.66 628.2 138.12 628.57 140.05 630.66 139.85 632.65 141.77 630.22 143.48 632.13 144.65 638.05 150.98 638.34 153.7 636.72 154.55 633.16 154.5 634.19 151.64 632.21 149.66 632.34 147.79 630.53 145.7 628.89 145.52 627.42 146.73 626.27 145.93 624.18 147.6 624.31 143.18 622.69 143 621.89 141.27 624.24 138.53 625.03 137.04 626.36 136.66 Z"
       id="path139" />
    <path
       d="M 577.8 92.81 574.39 94.26 573.07 95.36 570.38 95.42 568.29 96.98 568.2 97.01 567.49 96.26 564.04 97.53 563.22 98.89 560.3 99.15 558.4 98.52 553.58 98.68 553.65 97.69 557.29 97.14 560.42 96.81 559.98 95.08 556.87 94.92 555.54 94.17 557.27 92.68 559.26 91.39 562.73 91.93 564.61 90.54 566.65 91.35 574 91.29 577.8 92.81 Z"
       id="path141" />
    <path
       d="M 499.76 94.81 503.11 100.14 502.27 100.18 501.45 99.09 499.25 98.32 496.79 97.42 496.29 95.21 499.76 94.81 Z"
       id="path143" />
    <path
       d="M 419.2 64.66 418 61 418.99 60.94 422.09 58.69 423.66 61.85 421.52 63.24 420.92 64.85 419.2 64.66 Z M 426.69 64.67 424.93 63.96 425.52 62.42 427.15 63.22 426.69 64.67 Z"
       fill-rule="evenodd"
       id="path145" />
    <path
       d="M 425.5 112.77 427.37 113.54 429.6 113.38 433.68 114.52 435.57 116.99 438.49 117.41 442.24 119.23 443.78 118.69 444.66 117.12 444.16 116.01 445.58 114.15 447.9 113.33 451.17 113.96 451.2 114.67 455.75 116.15 454.73 119.5 455.38 121.63 455.38 137.55 455.37 141.97 453.16 141.98 453.16 143.09 435.43 134.34 433.21 135.34 431.55 136.17 429.89 134.93 426.53 134.18 425.64 132.52 422.24 131.21 420.84 128.43 421.8 127.56 422.02 124.54 421.1 119.31 422.77 117.79 422.41 116.69 425.37 114.57 425.5 112.77 Z"
       id="path147" />
    <path
       d="M 425.5 112.77 425.37 114.57 422.41 116.69 422.77 117.79 421.1 119.31 420.05 115.23 417.18 112.71 416.58 111.19 418.26 109.52 418.27 106.91 419.07 104.44 421.85 103.58 423.36 104.82 423.52 106.85 424.63 108.29 422.45 110.24 425.5 112.77 Z"
       id="path149" />
    <path
       d="M 450.71 80.06 451.63 79.86 451.78 79.96 456 80.17 459 79.37 462.15 82.12 462.51 85.56 465.74 86.11 463.49 88.08 463.35 89.38 459.91 88.41 456.21 89.57 451.7 89.05 450.3 88.3 448 87.28 444.87 84.13 446.85 83.76 449.35 80.57 450.71 80.06 Z"
       id="path151" />
    <path
       d="M 450.71 80.06 449.35 80.57 446.85 83.76 444.87 84.13 441.9 84.52 438.45 84.47 436.61 83.26 435.68 82.46 438.01 79.93 439.51 80.5 444.08 79.65 445.4 78.78 449.06 79.05 450.71 80.06 Z"
       id="path153" />
    <path
       d="M 449.96 77.57 449.06 79.05 445.4 78.78 444.08 79.65 439.51 80.5 438.01 79.93 437.56 78.6 441.75 76.6 448.37 76.89 449.96 77.57 Z"
       id="path155" />
    <path
       d="M 441.75 76.6 438.07 74.67 432.83 73.61 432.46 69.8 431.37 69.25 431.62 67.31 431.48 66.92 431.5 66.79 435.86 66.07 439.65 64.82 441.2 65.69 443.47 65.64 450.47 65.86 452.06 66.78 452.96 68.53 452.33 72.15 453.44 74.32 451.21 75.61 449.96 77.57 448.37 76.89 441.75 76.6 Z"
       id="path157" />
    <path
       d="M 383.94 64.28 382.63 66.2 386.1 66.43 386.71 68.94 385.71 70.37 381.07 71.86 378.58 72.16 377.31 71.41 379.45 68.54 377.9 67.62 378.31 65.9 380.77 66.05 381.68 64.08 383.94 64.28 Z"
       id="path159" />
    <path
       d="M 383.94 64.28 386.48 63.96 387.96 65.62 386.1 66.43 382.63 66.2 383.94 64.28 Z M 394.09 71.93 392.15 72.41 390.29 71.69 390.38 68.62 393.22 67.9 393.31 66.8 391.55 64.73 390.36 65.09 388.9 64.12 387.44 61.11 387.13 58.13 388.94 56.4 393.23 56.35 392.26 58.42 395.94 58.64 393.43 61.76 396.39 63.14 397.46 65.28 399.48 66.29 401.26 68.93 403.93 70 402.19 71.46 400.82 73.7 393.65 73.89 391.6 75.04 389.47 74.78 390.8 72.83 393.22 72.83 394.09 71.93 Z"
       fill-rule="evenodd"
       id="path161" />
    <path
       d="M 446.47 95.78 450.8 94.71 454.33 94.21 456.05 94.92 458.37 93.87 457.73 96.03 454.07 95.59 452.48 97.18 450.03 97.54 451.98 102.05 451.2 104.78 448.12 104.71 447.4 101.63 444.33 98.34 445.75 97.47 446.47 95.78 Z"
       id="path163" />
    <path
       d="M 472.97 207.12 474.64 209.71 473.66 211.57 473.98 214.01 472.54 216.35 473.6 217.32 466.98 219.47 467.38 220.92 464.7 221.31 463.89 222.77 461.57 223.94 459.96 226.03 455.99 225.7 453.69 225 451.83 225.36 449.1 223.05 448.73 222.09 448.72 215.08 453.2 215.08 453.13 210.37 453.89 211.55 456.03 211.09 457.62 212.65 460.78 212.69 463 214.02 464.66 216.04 465.56 215.58 466.06 213.22 464.35 213.7 463.17 212.55 463.55 208.04 462.89 206.74 464.1 205.05 468.17 204.43 468.63 205.22 472.97 207.12 Z"
       id="path165" />
    <path
       d="M 377.21 167.48 376.47 169.07 374.56 170.95 372.28 169.91 370.52 166.25 372.27 164.43 375.01 164.13 377.21 167.48 Z"
       id="path167" />
    <path
       d="M 370.52 166.25 369.8 164.75 366.7 161.98 367.44 160.78 369.57 160.34 369.57 158.2 372.6 159.02 374.76 158.8 376.26 159.94 380.06 158.84 380.39 160.45 382.29 163.77 382.36 166.82 381.19 169.54 379.08 169.84 378.53 167.48 377.21 167.48 375.01 164.13 372.27 164.43 370.52 166.25 Z"
       id="path169" />
    <path
       d="M 374.56 170.95 376.47 169.07 377.21 167.48 378.53 167.48 379.08 169.84 381.19 169.54 381.01 171.77 383.49 173.33 383.28 176.64 379.43 174.88 374.56 170.95 Z"
       id="path171" />
    <path
       d="M 450.68 162.09 452.37 164.33 452.05 166.82 453.58 167.03 456.21 170.03 458.47 171.54 458.8 172.89 460.23 173.61 460.83 175.05 458.66 175.07 456.71 174.37 454.22 174.96 449.86 177.03 445.67 176.51 443.71 174.9 441.5 176.58 441.29 178.58 438.42 178.26 436.73 178.6 435.9 181.32 435.67 179.94 433.63 177.95 432.19 174.58 432.63 172.42 434.32 169.61 437.17 169.55 439.19 168.59 441.21 168.45 442.34 166.31 445.13 166.08 448 163.61 448.15 162.71 450.68 162.09 Z"
       id="path173" />
    <path
       d="M 481.76 137.55 482.46 139.31 482.98 144.49 485.57 146.39 485 147.16 482.02 148.46 481.89 150.27 480.74 152.8 480.97 154.68 480.07 158.1 478.95 158.42 477.47 161.3 475.99 162.87 475.52 165.33 475.15 163.7 473.55 162.26 471.85 161.8 469.24 164.59 466.53 163.53 464.26 165.04 464.26 163.77 461.68 163.77 461.83 165.02 458.87 165.19 457.29 163.2 455.6 163.48 454.44 166.59 453.58 167.03 452.05 166.82 452.37 164.33 450.68 162.09 450.08 159.72 448.62 157.35 448.93 155.77 451.19 151.49 453.17 151.45 453.16 143.09 453.16 141.98 455.37 141.97 455.38 137.55 481.76 137.55 Z"
       id="path175" />
    <path
       d="M 495.85 160.83 495.15 161.91 492.65 161.98 492.54 160.72 493.94 158.66 495.58 158.13 495.85 160.83 Z"
       id="path177" />
    <path
       d="M 495.58 158.13 493.94 158.66 490.51 155.03 488.9 154.23 485.18 154.34 483.27 155.01 480.97 154.68 480.74 152.8 481.89 150.27 482.02 148.46 485 147.16 485.57 146.39 486.97 150.59 488.04 152.46 491.23 153.84 492.38 155.4 495.58 158.13 Z"
       id="path179" />
    <path
       d="M 437.56 78.6 438.01 79.93 435.68 82.46 432.15 83.45 430.37 83.22 427.5 82.84 426.85 82.17 423.17 82.46 421.24 82.03 421.11 81.58 421.16 80.97 422.84 81.49 428.25 80.68 428.25 79.67 430.62 78.24 432.49 78.66 433.21 77.71 437.56 78.6 Z"
       id="path181" />
    <path
       d="M 499.23 104 499.91 105.59 501.55 106.95 502.26 108.45 500.86 109.65 500.83 111.09 502.57 113.26 505.06 114.64 506.03 115.92 505.68 117.61 507.58 119.9 506.28 119.83 504.43 119.9 503.15 121.82 499.07 121.59 493.27 117.43 489.49 115.52 486.77 115.13 485.95 112.35 490.2 110.22 491.32 109.25 491.8 105.36 493.89 104.07 494.81 103.48 499.23 104 Z"
       id="path183" />
    <path
       d="M 415.57 84.54 417.36 84.56 420.55 83.69 422.26 83.88 423.17 82.46 426.85 82.17 427.5 82.84 430.37 83.22 430.39 85.27 427.68 85.58 427.42 88.25 430.18 89.84 431.2 91.91 435.51 94.5 437.79 96.51 436.61 98.35 437.97 100.04 435.86 100.44 434.6 97.5 433.05 97.13 430.42 94.89 428.92 94.95 423.79 91.45 422.4 88.77 419.42 87.85 416.63 89.26 415.16 87.69 415.57 84.54 Z M 427.55 89.04 427.69 88.94 427.53 88.88 427.55 89.04 Z M 427.6 93.45 427.61 93.45 427.61 93.45 427.6 93.45 427.6 93.45 Z M 434.42 101.42 433.5 103.6 432.11 104.77 427.55 102.55 429.5 101.61 430.57 102.15 434.42 101.42 Z M 421.71 96.43 421.19 99.57 419.14 100.11 418.76 96.97 418.03 96.05 420.46 94.87 421.71 96.43 Z"
       fill-rule="evenodd"
       id="path185" />
    <path
       d="M 423.17 82.46 422.26 83.88 420.55 83.69 417.36 84.56 415.57 84.54 414.25 82.69 416.82 80.86 418.97 80.38 421.16 80.97 421.11 81.58 421.03 81.77 421.24 82.03 423.17 82.46 Z"
       id="path187" />
    <path
       d="M 499.32 98.46 500.72 99.87 502.27 100.18 503.11 100.14 506.06 98.36 508.34 101.13 508.65 102.67 511.16 103.42 513.25 104.89 515.07 105.24 518.57 104.56 519.51 103.55 521.44 103.16 522.85 101.93 526.44 101.68 530.48 102.83 533.76 105.11 535.38 105.09 535.81 107.37 535.36 109.15 534.08 110.75 534.9 116.53 536.68 116.76 536.96 117.98 534.87 120.13 537.2 123.05 539.06 124.26 539.1 127.25 537.12 128.14 536.52 130.45 527.07 129.17 526.41 126.79 524.92 126.02 521.48 127.58 519.07 127.11 515.29 124.62 513.89 124.27 512.29 121.04 511.15 119.96 507.58 119.9 505.68 117.61 506.03 115.92 505.06 114.64 502.57 113.26 500.83 111.09 500.86 109.65 502.26 108.45 501.55 106.95 499.91 105.59 499.23 104 498.02 102.37 497.59 99.02 499.32 98.46 Z"
       id="path189" />
    <path
       d="M 421.11 81.58 421.24 82.03 421.03 81.77 421.11 81.58 Z"
       id="path191" />
    <path
       d="M 382.29 163.77 387.76 163.18 388.99 164.34 391.88 164.24 394.04 165.26 394.44 168.09 392.77 171.62 393.7 174.87 390.86 174.52 387.03 175.14 383.28 176.64 383.49 173.33 381.01 171.77 381.19 169.54 382.36 166.82 382.29 163.77 Z"
       id="path193" />
    <path
       d="M 444.87 84.13 448 87.28 450.3 88.3 449.54 89.23 450.84 90.83 449.53 92.54 447.8 92.69 446.19 90.64 445.1 91.4 442.55 89.84 442.15 86.89 441.9 84.52 444.87 84.13 Z"
       id="path195" />
    <path
       d="M 372.81 153.55 374.01 151.85 378.2 152.23 379.28 151.95 387.77 151.95 385.39 130.91 389.31 130.91 402.54 139.53 404.19 141.46 407.13 142.43 407.33 144.23 409.37 143.87 409.27 149.91 407.77 152.26 402.95 152.42 400.48 153.25 398.33 152.89 395.51 154.82 393.7 155.17 392.8 156.83 391.17 156.6 390.23 159.01 388.54 159.82 387.76 163.18 382.29 163.77 380.39 160.45 380.06 158.84 376.26 159.94 374.76 158.8 374.62 157.31 373.41 156.27 372.81 153.55 Z"
       id="path197" />
    <path
       d="M 372.81 153.55 373.41 156.27 374.62 157.31 374.76 158.8 372.6 159.02 369.57 158.2 366.32 158.19 362.92 158.96 362.86 157.34 364.9 157.13 365.6 156.19 363.29 156.18 361.92 153.82 363.33 151.26 363.81 149.78 368.21 149.42 372.81 153.55 Z"
       id="path199" />
    <path
       d="M 407.97 160.37 408.08 158.52 409.99 155.94 412.31 155.54 414.12 156.09 415.31 157.46 417.19 156.75 419.24 157.65 421.37 157.87 423.66 156.65 427.65 157.34 430.16 155.92 431.18 157.31 432.35 160.81 430.99 161.3 428.51 165.49 428.39 166.71 425.51 171.63 422.43 170.78 419.63 173.32 419.05 175.61 413.51 176.8 412.4 176.01 411.1 173.32 409.77 172.19 405.99 172.17 406.14 166.21 407.79 164.47 408.51 162.8 407.97 160.37 Z"
       id="path201" />
    <path
       d="M 407.97 160.37 408.51 162.8 407.79 164.47 406.14 166.21 405.99 172.17 403.59 172.51 403.55 166.23 402.95 164.13 401.7 163.31 402 161.93 405.3 159.92 406.3 158.81 407.97 160.37 Z"
       id="path203" />
    <path
       d="M 428.98 196.55 427.07 199.05 426.62 197.4 428.98 196.55 Z M 453.13 210.37 453.2 215.08 448.72 215.08 448.73 222.09 449.1 223.05 451.83 225.36 446.12 226.23 441.59 225.6 440.89 224.8 430.91 224.84 429.62 223.86 426.08 224.5 426.02 221.5 427.2 218.96 427.74 216.06 430.23 213.41 430.49 209.86 428.81 206.43 429.64 204.72 428.41 201.67 427.22 199.9 429.22 199.25 436.79 199.4 437.67 202.45 438.87 204.04 442.9 204.01 443.27 201.79 445.49 202.42 448.29 202.41 448.44 207.59 451.02 210.88 453.13 210.37 Z"
       fill-rule="evenodd"
       id="path205" />
    <path
       d="M 436.61 83.26 438.45 84.47 441.9 84.52 442.15 86.89 437.53 85.97 434.84 87.06 438.97 91.15 433.57 88.37 432.87 86.34 430.12 85.5 433.56 85.64 434.72 83.9 436.61 83.26 Z M 440.87 92 441 92.31 439.13 91.26 440.87 92 Z"
       fill-rule="evenodd"
       id="path207" />
    <path
       d="M 430.12 85.5 430.39 85.27 430.37 83.22 432.15 83.45 435.68 82.46 436.61 83.26 434.72 83.9 433.56 85.64 430.12 85.5 Z"
       id="path209" />
    <path
       d="M 512.62 131.46 513.16 128.56 514.33 128.94 514.42 130.59 513.53 131.72 512.62 131.46 Z"
       id="path211" />
    <path
       d="M 512.62 131.46 513.53 131.72 514.31 132.54 516.56 135.48 522.33 135.98 523.33 137.59 521.87 141.98 515.22 144.2 508.9 145.05 506.76 146.07 505.13 148.41 504.12 148.71 500.12 147.67 495.68 147.9 494.85 150.01 493.77 147.61 492.48 146.6 489.83 142.03 487.88 140.95 486.63 139.06 486.77 136.68 485.56 134.07 483.32 132.56 482.53 130.47 477.7 123.98 477.47 121.25 479.84 121.61 481.48 120.12 484.19 118.71 481.93 116.52 486.77 115.13 489.49 115.52 493.27 117.43 499.07 121.59 503.15 121.82 505.15 122.05 507.36 123.05 510.17 126.56 512.62 131.46 Z"
       id="path213" />
    <path
       d="M 455.99 225.7 457.92 229.48 461.4 231.71 462.05 234.02 464.37 234.57 465.06 235.43 462.82 236.31 459.86 238.66 459.52 240 457.34 241.11 456.72 243.04 454.97 243.5 451 242.35 450.36 243.84 448.07 245.77 445.68 245.4 446.2 244.17 444.29 241.11 444.29 235.02 446.52 234.94 446.49 226.86 455.99 225.7 Z"
       id="path215" />
    <path
       d="M 455.99 225.7 459.96 226.03 461.57 223.94 463.89 222.77 464.7 221.31 467.38 220.92 470.73 222.68 472.91 223.3 473.14 227.19 472.64 229.18 473.22 230.11 471.84 233.44 469.36 235.9 465.06 235.43 464.37 234.57 462.05 234.02 461.4 231.71 457.92 229.48 455.99 225.7 Z"
       id="path217" />
    <path
       d="M 458.37 93.87 456.05 94.92 454.33 94.21 450.8 94.71 449.53 92.54 450.84 90.83 449.54 89.23 450.3 88.3 451.7 89.05 456.21 89.57 459.91 88.41 463.35 89.38 462.27 90.21 462.1 93.29 460.46 93.03 458.37 93.87 Z"
       id="path219" />
    <path
       d="M 628.13 160.48 625.72 158.2 623.52 158.13 623.77 156.44 622.19 156.42 621.35 159.76 619.99 162.94 619.85 164.92 621.34 165.69 622.16 167.56 622.54 170.3 625.14 171.14 626.26 172.42 621.95 172.01 618.56 167.73 617.96 165.89 618.89 163.35 620.85 160.1 619.92 158.07 619.79 155.9 617.6 152.77 618.47 152.26 618.63 149.81 616.72 147.11 616.43 145.72 616.29 145.66 616.88 142.96 621.89 141.27 622.69 143 624.31 143.18 624.18 147.6 626.27 145.93 627.42 146.73 628.89 145.52 630.53 145.7 632.34 147.79 632.21 149.66 634.19 151.64 633.16 154.5 628.51 154.61 626.83 156.87 628.13 160.48 Z"
       id="path221" />
    <path
       d="M 427.55 89.04 427.53 88.88 427.69 88.94 427.55 89.04 Z"
       id="path223" />
    <path
       d="M 240.94 142.61 240.9 146.32 238.6 144.07 238.68 142.1 240.94 142.61 Z"
       id="path225" />
    <path
       d="M 240.94 142.61 242.61 142.11 245.06 142.78 245.7 143.98 247.63 144.27 247.38 145.57 240.9 146.32 240.94 142.61 Z"
       id="path227" />
    <path
       d="M 431.18 157.31 430.16 155.92 429.81 154.42 431.85 151.39 434.3 148.8 434.88 142.19 435.36 141.14 433.65 138.63 433.21 135.34 435.43 134.34 453.16 143.09 453.17 151.45 451.19 151.49 448.93 155.77 448.62 157.35 450.08 159.72 450.68 162.09 448.15 162.71 448 163.61 445.13 166.08 442.34 166.31 441.21 168.45 439.19 168.59 437.17 169.55 434.32 169.61 433.66 167.49 430.92 164.93 431.44 164.17 434.44 163.95 433.4 162.37 433.55 160.73 432.87 158.33 431.18 157.31 Z"
       id="path229" />
    <path
       d="M 506.28 119.83 507.36 123.05 505.15 122.05 503.15 121.82 504.43 119.9 506.28 119.83 Z"
       id="path231" />
    <path
       d="M 200.28 155.86 201.92 154.34 205.34 156.58 203.19 156.94 200.28 155.86 Z"
       id="path233" />
    <path
       d="M 201.92 154.34 200.28 155.86 197.58 155.36 195.52 154.05 195.61 152.41 196.68 150.68 199.42 150.68 198.14 148.8 198.37 146.81 202.36 146.81 202.19 151.07 202.91 151.07 204.44 151.44 202.33 152.96 201.92 154.34 Z"
       id="path235" />
    <path
       d="M 676.9 206.13 677.4 205.4 681.44 204.69 681.54 205.5 677.22 207.29 676.9 206.13 Z"
       id="path237" />
    <path
       d="M 654.88 175.45 654 177.37 652.7 176.09 654.88 175.45 Z"
       id="path239" />
    <path
       d="M 416.49 89.37 416.33 89.42 416.42 89.33 416.49 89.37 Z"
       id="path241" />
    <path
       d="M 419.07 104.44 418.27 106.91 418.26 109.52 416.58 111.19 417.18 112.71 420.05 115.23 421.1 119.31 422.02 124.54 421.8 127.56 420.84 128.43 422.24 131.21 425.64 132.52 426.53 134.18 416.59 140.04 412.94 143.13 409.37 143.87 407.33 144.23 407.13 142.43 404.19 141.46 402.54 139.53 389.31 130.91 380.75 125.83 380.75 125 380.75 122.77 383.11 121.17 387.24 120.67 390.31 118.69 391.92 118.24 391.89 116.17 394.42 115.09 397.23 115.21 396.04 109.28 395.07 108.54 402.32 105.45 406.5 104.73 410.61 104.54 411.76 105.1 416.37 104.13 419.07 104.44 Z"
       id="path243" />
    <path
       d="M 471.19 245.74 470.82 243.79 470.9 240.39 469.36 235.9 471.84 233.44 473.22 230.11 472.64 229.18 473.14 227.19 472.91 223.3 470.73 222.68 467.38 220.92 466.98 219.47 473.6 217.32 474.87 218.47 476.13 218.15 476.63 220.11 476.22 222.14 478.06 222.8 479.35 221.74 479.47 218.77 476.58 215.8 476.15 213.31 477.5 211.92 482.97 212.25 488.68 210.23 489.64 209.48 489.87 216.54 490.53 218.32 489.94 220.63 486.65 223.9 484.03 224.73 482.21 225.87 480.34 228.11 477.05 230.3 477.01 231.81 478.68 235.33 478.46 239.1 477.82 240.77 472.87 242.87 472.91 245.75 471.19 245.74 Z"
       id="path245" />
    <path
       d="M 470.82 243.79 471.19 245.74 469.06 246.55 468.24 245.47 468.98 243.68 470.82 243.79 Z"
       id="path247" />
    <path
       d="M 467.73 191.6 468.34 193.31 466.51 195.74 465.18 196.14 464.32 192.31 465.83 192.5 467.73 191.6 Z"
       id="path249" />
    <path
       d="M 464.32 192.31 463.97 191.64 465.56 189.35 467.55 188.64 468.34 189.81 467.73 191.6 465.83 192.5 464.32 192.31 Z"
       id="path251" />
    <path
       d="M 624.24 138.53 621.89 141.27 616.88 142.96 616.29 145.66 616.43 145.72 616.72 147.11 618.63 149.81 618.47 152.26 617.6 152.77 619.79 155.9 619.92 158.07 620.85 160.1 618.89 163.35 618.77 158.12 616.78 153.31 616.23 149.64 614.17 149.69 611.46 151.46 608.84 150.48 609.69 147.25 608.34 143.33 606.98 141.78 605.64 141.53 604.52 139.62 605.21 137.59 606.52 136.68 607.16 133.2 608.36 133.29 610.89 128.61 610.85 127.34 615.1 124.82 615.73 123.77 616.19 123.08 618.74 125.19 618.91 127.3 617.97 129.64 616.21 131.46 616.59 132.83 618.35 132.84 621.56 138.16 624.24 138.53 Z"
       id="path253" />
    <path
       d="M 605.21 137.59 604.52 139.62 602.73 135.8 599.91 137.98 597.88 138.31 597.42 137.25 596.26 133.89 596.7 132.47 595.23 128.88 596.09 127.67 599.12 128.88 600.31 130.56 603.94 130.49 604.17 132.21 602.03 133.97 602.96 135.38 603.01 135.42 604.72 134.69 605.21 137.59 Z"
       id="path255" />
    <path
       d="M 403.78 92.12 403.21 92.27 403.17 91.92 403.78 92.12 Z"
       id="path257" />
    <path
       d="M 565.24 104.26 560.85 104.71 557.76 106.47 558.79 108.29 557.56 109.47 557.49 110.86 555.17 110.86 555.82 112.47 554.16 113.01 552.96 116.16 551.09 115.77 549.28 117.14 547.11 117.77 546.73 120.18 542.06 121.18 538.49 121.13 534.87 120.13 536.96 117.98 536.68 116.76 534.9 116.53 534.08 110.75 535.36 109.15 535.81 107.37 538.81 108.25 540.41 106.84 542.46 106.19 543.55 104.11 545.57 103.16 547.45 103.5 550.25 103.89 550.76 104.46 555.53 102.34 557.33 101.05 558.71 102.32 558.74 104.96 562.43 103.29 566.01 103.8 565.24 104.26 Z"
       id="path259" />
    <path
       d="M 441 92.31 440.87 92 442.55 89.84 445.1 91.4 444.48 92.02 442.93 93.56 441 92.31 Z"
       id="path261" />
    <path
       d="M 439.13 91.26 438.97 91.15 434.84 87.06 437.53 85.97 442.15 86.89 442.55 89.84 440.87 92 439.13 91.26 Z"
       id="path263" />
    <path
       d="M 467.55 188.64 465.56 189.35 466.34 184.54 469.25 181.74 468.11 180.87 468.36 178.55 470.81 178.32 475.32 176.93 477.41 180.79 477.54 182.57 476.61 183.86 476.53 183.85 475.13 186.04 475.15 188.5 467.55 188.64 Z"
       id="path265" />
    <path
       d="M 233.54 142.2 233.39 142.16 233.45 142.03 233.54 142.2 Z"
       id="path267" />
    <path
       d="M 233.54 142.2 233.45 142.03 233.39 142.04 233.23 142.19 230.98 141.99 229.07 140.84 226.95 140.4 225.4 138.34 224.33 138.53 221.7 137.45 218.62 137.12 216.83 136.03 215.1 137.13 213.75 136.04 218.16 134.88 222.61 135.44 224.13 136.63 228.19 137.85 230.08 139.1 232.47 139.73 235.37 141.82 233.54 142.2 Z"
       id="path269" />
    <path
       d="M 201.92 154.34 202.33 152.96 204.44 151.44 210.02 150.89 213.15 151.25 215.73 153.06 212.73 153.89 212.09 153.48 209.76 155.6 206.45 157.52 205.34 156.58 201.92 154.34 Z"
       id="path271" />
    <path
       d="M 225.26 183.1 228.38 185.37 231.41 185.47 233.12 186.52 232.51 189.61 230.02 191.98 227.43 192.88 226.3 194.01 224.86 197.27 222.49 195.83 221.91 193.8 220.78 189.86 222.52 186.16 222.5 184.47 225.26 183.1 Z"
       id="path273" />
    <path
       d="M 225.26 183.1 226.14 180.55 227.65 180.46 228.86 178.26 228.37 177.41 228.77 173.46 228.56 171.78 227.33 170.25 228.87 168.6 228.49 167.08 230.04 167.05 232.29 164.78 232.62 162.83 234.1 161.67 237.54 161.26 241.16 158.66 241.89 160.03 240.46 160.44 238.39 163.12 238.16 165.69 239.54 167.81 239.4 169.8 240.22 170.62 244.62 170.89 246.07 172.72 250.21 172.4 249.61 174.54 250.08 177.95 249.62 179.89 250.76 180.8 251.76 183.57 250.73 181.65 248.9 182.47 245.17 182.58 244.67 186.56 246.16 188.9 244.91 195.66 243.21 194.66 244.72 192.29 242.9 191.22 240.91 191.02 238.31 191.64 236.77 189.06 233.12 186.52 231.41 185.47 228.38 185.37 225.26 183.1 Z"
       id="path275" />
    <path
       d="M 261.13 235.54 261.95 231.87 263.1 229.83 266.99 229.03 269.02 229.01 271.08 230.95 271.74 232.2 271.46 235.1 276.1 235.7 277.2 239.4 279.76 239.56 278.97 242.94 278.83 244.56 276.41 247.08 273.25 247.17 269.99 246.44 272.42 242.68 266.93 239.46 264.77 239.02 261.13 235.54 Z"
       id="path277" />
    <path
       d="M 383.56 103.88 380.88 104.04 380.26 100.96 378.96 100.53 380.81 95.46 380.6 93.3 384.16 93.26 386.24 94.19 384.89 95.33 384.75 97.64 383.79 98.87 383.56 103.88 Z"
       id="path279" />
    <path
       d="M 459 79.37 461.52 78.94 463.84 79.69 465.48 81.69 464.86 83.5 464.73 83.58 462.51 85.56 462.15 82.12 459 79.37 Z"
       id="path281" />
    <path
       d="M 535.81 107.37 535.38 105.09 533.76 105.11 530.48 102.83 526.44 101.68 522.85 101.93 521.44 103.16 519.51 103.55 519.32 100.93 517.72 95.95 520.08 96.05 519.47 93.06 516.24 93.79 519.8 92.47 521.34 93.13 522.87 94.81 524.09 94.74 526.37 94.89 526.24 93.53 529.92 91.5 532.7 92.56 533.92 94.93 537.16 95.17 538.44 97.64 542.13 99.96 545.42 101.57 547.53 102.04 547.45 103.5 545.57 103.16 543.55 104.11 542.46 106.19 540.41 106.84 538.81 108.25 535.81 107.37 Z"
       id="path283" />
    <path
       d="M 478.94 113.88 481.62 114.69 485.95 112.35 486.77 115.13 481.93 116.52 484.19 118.71 481.48 120.12 479.84 121.61 477.47 121.25 477.48 120.8 478.6 116.51 478.83 114.54 478.94 113.88 Z"
       id="path285" />
    <path
       d="M 595.33 124.56 595.23 127.67 593.57 127.9 590.24 127.41 587.48 125.74 583.43 125.37 577.41 122.39 578.76 119.9 578.84 119.84 579.54 119.38 580.41 118.99 584.34 120.65 585.13 121.61 588.68 123.15 588.67 123.2 589.34 123.59 589.41 123.6 590.59 124.5 595.33 124.56 Z"
       id="path287" />
    <path
       d="M 464.24 250.32 464.6 252.56 462.19 254.18 460.66 253.43 460.39 251.74 461.51 250.32 463.54 249.63 464.24 250.32 Z"
       id="path289" />
    <path
       d="M 425.1 181.48 421.72 181.09 421.95 179.03 419.89 177.19 419.05 175.61 419.63 173.32 422.43 170.78 425.51 171.63 428.39 166.71 428.51 165.49 430.99 161.3 432.35 160.81 431.18 157.31 432.87 158.33 433.55 160.73 433.4 162.37 434.44 163.95 431.44 164.17 430.92 164.93 433.66 167.49 434.32 169.61 432.63 172.42 432.19 174.58 433.63 177.95 435.67 179.94 435.9 181.32 434.95 182.05 432.28 181.39 429.47 181.49 425.1 181.48 Z"
       id="path291" />
    <path
       d="M 429.47 181.49 429.37 183.57 431.44 183.22 432.07 184.26 430.75 185.84 432.14 187.68 431.54 191.43 425.62 191.48 426.22 194.14 424.64 195 421.95 192.26 419.51 187.9 420.54 187.19 421.73 184.07 425.13 184.07 425.1 181.48 429.47 181.49 Z"
       id="path293" />
    <path
       d="M 407.97 160.37 406.3 158.81 405.3 159.92 402.15 157.33 400.34 154.05 400.48 153.25 402.95 152.42 407.77 152.26 409.27 149.91 409.37 143.87 412.94 143.13 416.59 140.04 426.53 134.18 429.89 134.93 431.55 136.17 433.21 135.34 433.65 138.63 435.36 141.14 434.88 142.19 434.3 148.8 431.85 151.39 429.81 154.42 430.16 155.92 427.65 157.34 423.66 156.65 421.37 157.87 419.24 157.65 417.19 156.75 415.31 157.46 414.12 156.09 412.31 155.54 409.99 155.94 408.08 158.52 407.97 160.37 Z"
       id="path295" />
    <path
       d="M 405.3 159.92 402 161.93 399.63 161.61 398.86 161.94 393.9 161.94 394.04 165.26 391.88 164.24 388.99 164.34 387.76 163.18 388.54 159.82 390.23 159.01 391.17 156.6 392.8 156.83 393.7 155.17 395.51 154.82 398.33 152.89 400.48 153.25 400.34 154.05 402.15 157.33 405.3 159.92 Z"
       id="path297" />
    <path
       d="M 399.63 161.61 402 161.93 401.7 163.31 402.95 164.13 403.55 166.23 403.59 172.51 402.63 172.76 401.15 171.14 401.37 167.47 400.81 166.84 400.81 163.45 399.63 161.61 Z"
       id="path299" />
    <path
       d="M 399.63 161.61 400.81 163.45 400.81 166.84 401.37 167.47 401.15 171.14 402.63 172.76 395.37 175.78 393.08 175 393.09 174.96 393.7 174.87 392.77 171.62 394.44 168.09 394.04 165.26 393.9 161.94 398.86 161.94 399.63 161.61 Z"
       id="path301" />
    <path
       d="M 369.57 158.2 369.57 160.34 367.44 160.78 366.7 161.98 362.92 158.96 366.32 158.19 369.57 158.2 Z"
       id="path303" />
    <path
       d="M 388.12 106.21 388.17 106.21 388.14 106.26 388.12 106.21 Z"
       id="path305" />
    <path
       d="M 234.39 86.59 241.5 86.56 244.25 84.54 244.82 82.81 246.46 81.18 249.7 82.08 249.71 85.04 251.09 86.19 250.22 87.61 247.13 87.85 246.47 88.96 244.3 89.47 243.03 91.31 243.43 93.87 241.51 94.64 236.78 95.43 235.55 98.23 234 99.55 232.66 102.47 230.97 101.03 230.64 103.54 231.56 104.51 232.14 107.19 230.42 109.26 228.13 109.92 227.3 111.05 225.02 111.75 224.39 112.82 220.7 115.23 219.34 117.67 220.05 120.74 222.58 126.88 221.97 130.07 220.26 130.63 216.37 124.63 216.8 122.25 214.51 119.99 213.2 119.61 210.9 120.5 210.1 119.55 206.8 118.77 205.41 119.29 202.88 118.84 199.99 121.84 193.41 120.32 189.66 121.2 188.08 122.56 185.11 123.97 183.74 126.48 184.67 128.76 180.36 127.78 179.43 125.19 177.7 123.59 176.85 121.78 175.21 120.34 172.39 120.39 171.36 122.07 168.29 120.55 167.23 118.32 163.89 115.89 160.12 115.88 160.12 116.88 153.94 116.88 145.48 114.28 140.37 114.21 139.52 112.43 137.23 110.87 134.85 110.03 132.95 109.96 132.01 108.19 129.8 105.83 127.49 101.62 125.91 100.21 125.46 98.03 124.33 97.09 125 94.48 123.92 91.36 124.8 89.07 125.36 83.39 124.2 80.51 125.02 79.55 127.8 79.63 127.9 77.74 189.02 77.74 190.32 78.33 194.63 78.75 197.33 79.86 201.96 79.98 204.16 79.28 211.85 82.38 213.92 84.24 217.05 85.94 217.91 89.66 217.1 91.8 215.73 92.7 217.29 93.95 219.84 92.77 224.84 91.46 225.57 89.62 229.67 89.63 233.15 86.89 234.39 86.59 Z M 87.44 31.98 87.45 52.65 90.49 52.62 94.96 55.04 97.17 55.23 99.68 53.82 104.16 56.76 107.33 59.94 107.85 60.92 111.79 62.42 111.66 63.92 110.05 64.92 109.86 62.85 107.53 62.2 101.86 57 97.21 57.29 93.69 55.52 90.43 54.3 83.46 53.11 80.98 53.36 74.7 51.24 71.25 51.37 71.32 53.08 68.73 53.41 66.96 54.47 63.64 55.2 63.63 51.33 61.43 53.56 58.32 54.95 59.88 56.16 58.09 57.51 56.37 57.73 48.69 62.15 45.71 62.55 44.52 61.61 47.67 60.35 50.41 58.74 50.87 56.76 48.15 55.85 44.55 55.42 41.87 56.45 40.14 52.87 37.32 53.8 33.55 52.07 33.96 51.31 31.81 49.32 36.14 46.13 38.48 46.58 40.28 45.63 43.58 45.06 42.71 42.41 39.55 43.37 38.36 43.11 34.61 43.49 31.61 43.2 31.24 41.67 28.53 40.68 32.55 39.35 36.5 38.71 37.17 39.89 41.09 39.97 41.19 38.5 37.16 37.62 36.13 36.48 31.26 34.67 31.54 33.67 35.7 33.58 38.34 32.62 38.79 31.67 41.11 30.49 43.43 30.43 47.19 29.24 49.67 29.35 52.39 28.31 56.22 28.65 58.34 29.45 60.18 29.15 64.28 30.23 68.95 30.07 77.97 31.22 82.49 30.94 87.44 31.98 Z M 107.45 64.81 105.27 63.82 106.22 62.55 107.45 64.81 Z M 62.71 58.61 58.72 60.56 57.02 59.05 59.25 58.01 61.99 57.99 62.71 58.61 Z M 56.64 142.93 54.47 144.12 54.07 142.57 55.68 141.87 56.64 142.93 Z"
       fill-rule="evenodd"
       id="path307" />
    <path
       d="M 234.39 86.59 233.15 86.89 229.67 89.63 225.57 89.62 224.84 91.46 219.84 92.77 217.29 93.95 215.73 92.7 217.1 91.8 217.91 89.66 217.05 85.94 213.92 84.24 211.85 82.38 204.16 79.28 201.96 79.98 197.33 79.86 194.63 78.75 190.32 78.33 189.02 77.74 127.9 77.74 127.27 77.74 127.15 77.74 126.8 77.12 123.51 75.61 120.17 73.6 117.31 73.29 116.71 70.51 111.6 66.77 110.9 65.31 111.93 63.83 111.79 62.42 107.85 60.92 107.33 59.94 104.16 56.76 99.68 53.82 97.17 55.23 94.96 55.04 90.49 52.62 87.45 52.65 87.44 31.98 91.56 32.28 95.89 33.53 98.38 33.67 100.41 32.36 103.62 32.67 110.98 30.84 114.06 31.91 115.58 31.23 116.29 29.89 119.14 31.72 121.92 32.71 122.96 31.05 124.78 32.65 127.46 31.56 130.83 31.72 133.38 32.52 142.41 33.79 145.01 33.7 145.44 35.05 147.61 36.31 153.87 36.15 156.03 35.62 159.27 36.46 159.98 34.26 164.43 33.63 168.14 35.42 173.22 36.25 176.74 35.97 180.05 36.27 182.81 34.42 187.15 35.38 189.72 35.57 191.11 32.67 187.25 31.68 185.83 29.37 186.9 28.07 188.23 28.33 188.92 26.88 190.42 26.77 193.37 27.95 193.97 29.39 195.51 29.82 197.18 31.95 200.79 34.57 201.23 33.32 202.85 32.9 204.88 33.84 204.59 36.34 206.42 37.47 209.58 35.51 210.41 32.25 213.05 31.51 216.71 31.91 218.78 32.83 218.04 35.86 219.92 36.83 219.28 37.86 216.83 38.82 212.45 39.59 210.66 38.81 207.05 41.75 204.84 44.09 202.39 44.6 200.63 44.12 199.07 46.56 195.88 46.99 192.87 49.61 191.67 50.13 190.06 52.77 189.84 55.53 190.75 56.21 193.43 56.11 195.57 59.96 198.21 59.42 202.96 60.31 205.87 62.12 211.3 63.76 217.22 64.12 217.95 67.07 217.56 68.79 219.58 70.8 223.23 73.02 225.99 70.29 223.81 64.97 227.58 63.83 230.07 62.06 230.23 59.4 229.14 57.87 226.05 56.19 228.55 53.22 226.73 51.43 227.71 50.54 226.76 48.27 228.23 47.62 234.22 48.52 236.7 47.86 241.17 49.7 241.07 50.53 244.58 51.02 245.45 51.84 246.05 55.79 247.52 55.74 250.02 57.19 252.29 56.7 254.49 55.41 256.25 52.55 257.21 52.86 259.93 55.44 261.24 57.22 263.99 59.81 262.83 61.7 266.06 62.71 266.05 63.81 269.16 64.08 271.77 65.01 273.69 67.25 276.28 68.13 276.5 70.88 273.76 72.33 270.43 72.59 266.86 74.95 263.19 75.29 260.8 74.85 255.34 74.8 252.22 75.21 250.65 76.97 249 77.13 246.9 78.27 244.98 80.44 241.83 82.74 238.2 83.91 236.05 85.8 234.39 86.59 Z M 234.39 86.59 236.95 85.67 237.87 84.24 240.74 82.89 243.65 82.13 246.93 79.43 252.32 77.45 256.77 77.45 257.4 79.01 256.3 80.35 256.22 82.64 256.99 83.84 261.52 85.23 262.74 84.7 264.52 86.12 257.55 88.07 254.44 89.91 253.23 88.57 255.22 85.57 252.75 86.4 251.09 86.19 249.71 85.04 249.7 82.08 246.46 81.18 244.82 82.81 244.25 84.54 241.5 86.56 234.39 86.59 Z M 283.34 80.99 282.65 82.62 281.18 82.08 279.9 80.21 277.53 82.34 275.94 80.47 273.69 80.86 268.97 80.91 268.33 80.21 274.27 72.59 276.94 71.96 275.54 75.17 276.09 76.48 277.59 77.14 280.21 76.66 281.15 78.84 280.83 80.77 283.34 80.99 Z M 109.37 70.7 106.28 68.78 107.86 68.31 109.37 70.7 Z M 188.94 33.72 186.54 34.57 180.15 33.79 182.93 31.43 188.94 33.72 Z M 176.4 31.63 172.77 32.17 173.98 33.49 170.83 33.9 164.58 33.09 163.74 32.3 162.07 33.36 153.99 34.42 149.05 34.52 147.96 33.06 142.92 32.75 136.1 27.6 137.3 25.64 139.83 24.74 146 23.71 147.74 25.35 149.48 24.52 155.63 25.6 156 24.57 159.2 25.52 160.92 27.64 160.57 23.77 165.41 24.44 168.62 27.66 168.16 28.83 176.4 31.63 Z M 238.3 38.44 239.62 37.59 238.21 35.25 236.77 35.05 230.14 32.21 227.8 30.8 225.13 31.44 220.43 31.07 217.67 31.63 215.9 31.18 209.85 31.21 207.95 30.48 205.26 30.68 203.39 30.17 204.78 28.52 200.91 28.26 200.6 26.08 202.39 24.15 205.46 22.97 211.35 22.76 208.01 24.79 208.46 26.76 210.48 27.85 210.14 24.84 211.33 23.84 216.39 22.93 219.28 22.97 221.24 24.18 222.56 25.89 225.22 26.29 227.98 25.1 233.31 25.67 235.44 26.6 238.12 28.47 239.35 27.55 241.33 27.85 241.9 29.24 248.46 29.91 248.83 32.73 250.01 34.38 254.12 35.93 255.86 35.51 259.83 37.91 262.92 37.91 263.51 38.85 261.16 40.95 259.92 40.88 258.93 42.45 255.62 41.34 253.79 39.81 251.06 38.97 250.48 40.78 251.56 42.09 254.09 42.54 257.01 45.28 256.05 47.53 252.2 46.65 253.09 49.24 248.04 48.37 241.09 46.33 241.23 45.11 239.07 44.79 236.05 43.43 232.18 43.21 229.69 44.02 227.42 43.68 226.78 42.38 228.45 41.23 232.07 41.81 234.85 41.52 235.2 39.57 238.3 38.44 Z M 144.37 23.43 135.85 25.38 133.61 26.25 132.59 27.9 127.13 28.8 124.99 27.44 121.25 26.45 122.78 25.52 124.81 22.67 124.94 21.45 130.5 21.11 133.65 21.72 138.29 21.72 140.94 22.15 144.37 23.43 Z M 126.64 78.84 126.08 79.26 119.43 76.81 116.76 75 118.04 74.13 121.95 74.82 123.28 76.58 124.78 77.04 126.64 78.84 Z M 217.81 46.74 215.72 48.54 215.36 46.86 217.81 46.74 Z M 222.26 45.01 220.41 45.71 217.05 44.56 214.82 44.25 210.98 46.44 208.47 43.52 209.5 40.59 211.14 40.49 213.58 41.82 217.42 42.79 219.06 44.22 222.26 45.01 Z M 233.68 35.25 233.61 36.63 231.78 37.28 229.36 37.31 228.6 36.28 230.01 35.05 233.68 35.25 Z M 167.96 23.16 166.51 24.83 163.91 23.64 167.96 23.16 Z M 220.66 23.21 221.68 22.84 228.84 23.43 230.83 24.96 222.78 24.9 220.66 23.21 Z M 186.49 25.74 185.96 27.13 180.03 28.21 176.92 26.36 177.34 25.14 176.19 22.76 178.33 22.45 180.07 22.92 184.41 22.65 183.52 24.48 186.49 25.74 Z M 199.85 22.51 196.38 24.89 192.96 25.01 191.44 26.63 189.09 26.85 187.93 25 188.87 22.32 193.25 21.95 199.85 22.51 Z M 192.88 20.25 192.5 20.89 189.59 20.87 185.86 19.98 189.64 18.7 192.11 19.3 192.88 20.25 Z M 184.04 18.98 182.69 20.07 177.6 20.1 177.07 19.18 172.5 19.02 175.2 16.94 176.95 17.73 177.74 16.47 181.76 16.4 183.2 16.77 184.04 18.98 Z M 166.37 18.63 165.01 20 162.81 20.3 158.77 19.97 152.49 21.23 147.98 21.36 146.32 19.98 143.62 20.19 140.21 18.85 143.95 16.9 146.84 16.87 152.93 18.26 153.39 18.97 158.33 19.02 156.67 16.8 158.88 16 159.29 17 161.38 17.97 165.57 17.93 166.37 18.63 Z M 223.64 20.15 222.24 20.99 218.7 21.33 214.92 21.06 205.72 21.33 202.97 20.87 200.61 21.16 196.03 20.62 195.04 19.29 195.81 18.22 193.57 17.09 189.22 17.41 187.71 15.53 191.81 15.83 194.53 16.59 197.31 16.38 200.39 17.89 204.53 19.04 206.34 18.76 208.93 19.21 213.98 18.32 220.2 18.4 223.44 19.09 223.64 20.15 Z M 135.51 17.47 133.03 18.33 131.59 16.43 136.61 14.9 140.14 15.06 141.97 14.45 142.92 16.38 139.87 17.34 137.71 16.69 135.51 17.47 Z M 157.05 13.32 155.64 14.58 151.49 14.97 151.13 13.45 157.05 13.32 Z M 185.18 13.93 181.97 12.48 183.98 11.72 188.39 12.35 189.28 13.54 185.18 13.93 Z M 165.9 11.04 170.08 10.46 173 11.23 177.45 11.64 180.15 13.83 176.98 13.78 175.91 13.03 170.58 12.36 169.29 11.3 167.62 11.71 165.9 11.04 Z M 185.82 8.95 188.9 6.8 191.22 6.02 195.54 6.27 199.41 7.8 205.6 8.14 208.25 11.11 202.61 13.08 200.56 12.13 199.72 13.16 196.06 13.01 192.41 11.91 191.43 10.4 188.95 10.64 185.82 8.95 Z M 264.59 3.89 262 4.57 257.31 5.23 256.6 5.97 247.82 7.55 243.4 8.73 242.3 9.52 234.42 10.27 233.51 12.65 229.58 13.69 227.36 13.61 227.48 16.49 221.19 17.55 219.99 16.66 212.89 17.23 206.26 16.9 202.34 16.97 206.72 13.69 206.08 12.48 208.01 11.69 213.18 11.36 211.54 9.9 208.37 9.59 208.25 8.37 214.27 8.49 223.75 7.86 223.52 7.22 216.21 7.86 214.85 7.37 212.92 7.92 204.71 7.54 201.58 5.75 198.08 5 208.13 4.09 212.23 3.55 216.08 3.96 219.4 2.78 222.32 2.54 226.62 2.73 231.23 2.29 236.35 2.7 239.09 2.18 245.53 2.15 245.68 2.43 256.59 2.6 259.36 2.79 260.57 3.49 264.59 3.89 Z M 266.82 84.83 264.04 85.33 263.58 84.28 265.66 82.08 266.82 84.83 Z"
       fill-rule="evenodd"
       id="path309" />
    <path
       d="M 184.67 128.76 183.54 131.97 183.01 136.16 184.65 140.54 186.19 142.26 187.53 144.81 188.95 144.83 190.35 145.98 196.18 144.87 198.88 143.35 199.7 139.76 200.97 139.13 205.02 138.43 207.72 139.39 206.17 141.55 205.44 145.5 204.26 145.34 202.36 146.81 198.37 146.81 198.14 148.8 199.42 150.68 196.68 150.68 195.61 152.41 195.52 154.05 191.35 150.34 189.74 149.88 188.45 150.89 185.97 151.59 183.27 150.88 180.87 149.66 176.1 148.06 173.48 146.59 170.58 145.66 169.51 144.46 167.21 143.37 165.7 141.07 166.84 138.78 165.48 136.13 162.74 133.15 159.6 130.3 157.41 129.14 157.82 127.58 154.86 125.47 151.4 122.12 149.23 118.02 149.41 117.26 145.54 115.79 145.84 119.41 149.73 123.2 150.02 124.55 152.71 127.14 153.27 129.17 154.71 131.32 157.33 134.08 155.49 134.13 151.54 131.4 150.97 128.29 146.22 125.94 147.21 123.23 143.54 120.36 142.72 118.02 140.37 114.21 145.48 114.28 153.94 116.88 160.12 116.88 160.12 115.88 163.89 115.89 167.23 118.32 168.29 120.55 171.36 122.07 172.39 120.39 175.21 120.34 176.85 121.78 177.7 123.59 179.43 125.19 180.36 127.78 184.67 128.76 Z"
       id="path311" />
    <path
       d="M 202.36 146.81 204.26 145.34 204.46 148.69 202.91 151.07 202.19 151.07 202.36 146.81 Z"
       id="path313" />
    <path
       d="M 216.96 165.06 217.69 166.31 220.84 166.58 223.66 164.95 227.05 165.84 228.49 167.08 228.87 168.6 227.33 170.25 225.42 166.72 223.81 166.34 221.62 168.07 222.68 169.66 220.73 170.3 218.87 168.27 216.24 168.48 216.96 165.06 Z"
       id="path315" />
    <path
       d="M 266.95 167.32 265.38 169.61 266.07 170.9 264.33 171.67 263.94 173.2 265.36 174.75 263.58 176.84 257.99 177.61 257.64 179.36 257.95 182.63 252.93 184.6 251.76 183.57 250.76 180.8 249.62 179.89 250.08 177.95 249.61 174.54 250.21 172.4 246.07 172.72 244.62 170.89 240.22 170.62 239.4 169.8 239.54 167.81 238.16 165.69 238.39 163.12 240.46 160.44 241.89 160.03 240.49 160.6 241.34 162.53 240.12 164.51 241.48 166.23 242.52 164.66 241.6 161.97 244.43 161.08 247.35 160.91 249.4 163.09 252.5 162.72 256.48 163.89 257.82 163.06 260.72 163.22 265.26 165.59 264.82 167.29 266.95 167.32 Z"
       id="path317" />
    <path
       d="M 712.49 192.04 720.34 194.74 723.22 197.05 723.03 198.29 726.85 199.49 725.8 201.21 726.21 202.65 728.32 204.12 729.31 206.29 732.37 208.57 731.3 209.21 727.54 208.57 723.86 204.22 720.16 203.14 718.3 204.54 717.88 206.13 716.21 206.95 712.5 206.45 712.49 192.04 Z M 745.65 200.99 744.38 201.22 743.04 199.46 743.74 198.58 745.65 200.99 Z M 737.86 195.91 737.15 198.37 733.53 200.18 731.68 200.23 731.15 198.66 734.09 198.54 737.86 195.91 Z"
       fill-rule="evenodd"
       id="path319" />
    <path
       d="M 475.92 117.13 477.33 120.95 475.54 124.69 475.4 127.32 478.72 133.16 479.12 135.48 481.76 137.55 455.38 137.55 455.38 121.63 454.73 119.5 455.75 116.15 460.56 116.76 464.35 117.99 467.3 116.48 468.93 116.26 471.06 117.43 474.59 117.34 475.81 116.91 475.92 117.13 Z"
       id="path321" />
    <path
       d="M 515.22 144.2 517.68 149.41 515.61 150.87 515.77 151.68 508.79 154.14 503.52 156.53 501.23 156.72 499.46 158.07 497.96 158.32 495.87 157.01 494.65 151.46 494.85 150.01 495.68 147.9 500.12 147.67 504.12 148.71 505.13 148.41 506.76 146.07 508.9 145.05 515.22 144.2 Z"
       id="path323" />
    <path
       d="M 372.81 153.55 368.21 149.42 363.81 149.78 363.33 151.26 364.48 146.49 363.48 143.59 364.09 141.5 362.41 139.02 371.15 139.02 371.15 135.29 373.37 134.23 373.37 128.69 380.7 128.69 380.75 125.83 389.31 130.91 385.39 130.91 387.77 151.95 379.28 151.95 378.2 152.23 374.01 151.85 372.81 153.55 Z"
       id="path325" />
    <path
       d="M 421.72 181.09 425.1 181.48 425.13 184.07 421.73 184.07 420.85 183.43 421.72 181.09 Z"
       id="path327" />
    <path
       d="M 362.86 157.34 363.29 156.18 365.6 156.19 364.9 157.13 362.86 157.34 Z"
       id="path329" />
    <path
       d="M 653.21 136.31 653.45 136.55 653.32 136.94 652.95 136.73 652.88 136.37 653.21 136.31 Z"
       id="path331" />
    <path
       d="M 427.6 93.45 427.6 93.45 427.61 93.45 427.61 93.45 427.6 93.45 Z"
       id="path333" />
    <path
       d="M 720.9 276.5 724.57 277.48 728.03 276.53 728.65 278.88 726.31 282.17 723.7 282.61 722 280.64 720.9 276.5 Z M 715.98 210 716.7 212.53 717.95 214.22 718.17 216.78 719.09 218.4 722.03 219.39 722.3 222.71 723.79 224.81 723.69 226.74 724.62 228.5 729.32 230.72 731.16 233.92 731.63 235.56 734.33 236.56 734.3 238.14 736.45 239.5 738.91 243.19 740.46 248.9 740.49 250.23 738.09 258.12 736.2 259.52 734.55 262.33 734.06 264.26 732.86 265.94 732.47 269.35 731.35 269.99 728.75 270.07 725.58 271.89 723.21 271.9 721.38 270.24 718.17 272.36 715.65 271.28 713.51 271.29 711.13 270.2 709.88 268.84 709.17 265.8 706.85 264.6 707.09 263.24 704.18 260.83 702.81 261.39 700.59 263.55 698.57 259.75 697.65 259.75 696.33 257.44 693.12 257.24 690.78 256.01 685.93 256.49 682.16 257.78 679.71 257.69 675.13 259.66 673.91 261.35 666 261.44 661.6 263.85 658.16 263.82 654.85 261.78 656.39 260.02 656.42 256.39 654.86 253.21 654.87 251.59 653.07 248.55 652.73 246.79 653.04 243.41 651.34 240 652.12 238.4 651.92 236.3 652.73 234.71 655.92 233.94 658.78 231.95 660.13 232.2 661.87 231.39 666.53 230.38 668.65 229.42 670.92 226.59 670.81 224.52 672.4 222.86 674.09 222.52 678.54 218.09 680.56 217.73 681.41 216.68 684.12 218.84 686.74 218.2 688.45 214.95 690.38 213.24 692.7 213.54 695.13 212.14 699.41 213.44 703 213.49 702.88 214.98 701.21 215.8 701.25 217.6 700.12 218.93 703.17 221.51 708.2 223.75 710.33 225.5 712.18 224.94 713.49 221.91 714.03 213.84 715.15 210.49 715.98 210 Z"
       fill-rule="evenodd"
       id="path335" />
    <path
       d="M 309.39 42.07 310.09 45.19 306.19 47.12 306.57 48.87 305.07 52 302.99 52.98 300.48 53.04 298.03 51.01 294.85 51.52 291.15 50.05 285.97 44.31 284.42 44 284.27 41.91 280.98 39.27 280.58 37.14 283.37 34.47 286.62 34.39 288.06 31.11 284 31.09 280.65 30.36 280.35 29.37 283.74 29.65 285.73 30.25 286.49 29.07 281.93 27.42 278.49 28.2 276.94 27.99 277.21 24.45 276.6 22.6 274.62 21.98 273.47 20.3 271.08 19.98 270.56 18.89 265.07 17.56 259.29 17.08 254.45 17.82 253.24 17.3 251.27 17.93 248.31 17.74 247.25 16.44 243.68 16.17 241.92 13.99 238.66 13.24 239.09 12.33 246.25 11.71 250.36 10.96 253.71 11 256.23 10.14 256.08 8.89 251.37 8.91 252.02 7.83 256.46 6.84 260.4 6.33 263.57 6.69 264.16 5.03 270.08 4.39 279.32 3.79 281.29 4.39 287.19 4.89 286.71 3.49 291.36 3.61 298.02 4.54 299.9 5.09 301.22 3.97 299.91 2.04 307.47 1.97 312.58 2.49 316.69 1.28 327.98 1 336.54 1.25 344.09 2.03 347.24 2.9 349.8 2.84 350.26 3.87 333.83 4.31 345.43 4.65 347.96 5.25 348.58 4.57 352.59 4.43 356 5.63 361.99 5.92 363.46 5.17 369.14 5.04 373.03 6.1 368.31 7.31 360.38 8.69 356.83 8.47 357.73 10.95 353.76 11.92 353.53 13.55 355.62 14.16 358.71 16.36 354.53 15.82 356.94 19.63 354.19 19.48 354.87 21.36 351.74 21.37 352.83 23.55 350.54 24 346.83 23.23 343.94 23.51 343.42 24.91 345.59 25.84 349.72 26.87 351.64 27.9 352.04 30.22 348.25 30.23 345.32 28.39 341.42 29.04 341.64 30.76 343.91 30.29 347.78 30.95 347.62 31.8 343.2 33.69 333.38 35.39 329.75 35.41 326.73 36.33 323.18 39.24 320.04 40.21 312.56 41.07 310.71 42.28 309.39 42.07 Z M 282.73 32.65 281.24 32.9 278.67 32.11 279.3 30.51 281.93 30.76 282.73 32.65 Z"
       fill-rule="evenodd"
       id="path337" />
    <path
       d="M 796.14 226.14 794.94 226.71 793.21 225.36 795.15 224.68 796.14 226.14 Z"
       id="path339" />
    <path
       d="M 770.26 235.54 768.49 235.35 764.34 232.27 764.63 231.25 770.26 235.54 Z"
       id="path341" />
    <path
       d="M 498.1 231.42 498.55 229.3 497.64 227.1 497.41 224.95 499.43 222.22 502.7 220.91 505.85 218.62 506.12 216.82 508.06 215.99 508.58 213.6 510.53 214.81 511.95 220.21 509.57 224.57 508.79 228.52 505.44 239.12 504.49 241.46 500.84 242.93 498.35 242.23 496.77 239.86 496.61 237.4 495.81 235.58 496.36 233.7 498.1 231.42 Z"
       id="path343" />
    <path
       d="M 680.56 170.1 678.65 172.66 677.48 173.43 675.41 172.57 674.79 171.17 675.38 168.08 676.6 166.45 679.99 166.44 680.56 170.1 Z M 671.09 145.51 670.78 147.25 671.61 148.42 670.89 150.25 669.5 150.98 669.06 152.37 669.84 154.85 668.83 156.16 666.2 153.5 665.78 150.28 666.95 148.7 667.35 145.21 671.09 145.51 Z M 673.03 160.85 671.74 162.58 670.67 160.45 673.03 160.85 Z M 678.66 161.58 677.56 161.62 675.48 158.51 678.19 159.14 678.66 161.58 Z M 669.38 158.13 668.51 159.16 667.06 156.81 668.11 156.3 669.38 158.13 Z"
       fill-rule="evenodd"
       id="path345" />
    <path
       d="M 581.49 170.57 580.35 172.49 577.56 172.71 576.81 168.58 577.94 165.22 578.98 165.54 580.36 167.49 581.49 170.57 Z"
       id="path347" />
    <path
       d="M 247.54 159.48 247.17 159.46 246.69 159.01 247.42 159.32 247.54 159.48 Z"
       id="path349" />
    <path
       d="M 244.84 158.42 245.1 158.69 245.08 158.77 244.7 158.5 244.84 158.42 Z"
       id="path351" />
    <path
       d="M 227.52 126.67 228.18 126.75 228.72 127.3 229.19 127.51 229.28 127.98 228.75 128.23 228.96 127.43 228.62 127.36 228.17 126.79 227.52 126.67 Z"
       id="path353" />
    <path
       d="M 240.84 138.01 240.82 137.9 241.11 137.89 241.22 138.04 240.97 138 240.84 138.01 Z"
       id="path355" />
    <path
       d="M 691.85 114.33 690.21 117.35 688.66 117.06 687.24 112.35 689.68 111.1 692 111.89 691.85 114.33 Z M 695.75 109.97 693.7 110.15 692.82 111.24 691.3 110.02 694.01 107.76 699.09 107.32 700.38 107.64 703.15 104.6 706.44 103.9 709.08 101.72 710.44 98.76 709.94 97.75 710.99 95.73 713.16 94.67 714.92 98.68 712.39 101.99 712.64 103.48 711.58 105.9 712.2 107.1 710.04 108.71 708.44 108.22 707.55 109.34 704.63 109.48 702.13 110.62 700.95 112.11 699.4 111.21 698.68 109.26 695.75 109.97 Z M 723.12 90.16 718.4 91.77 717.48 93.38 714.16 91.87 712.59 92.53 710.8 94.56 710.06 91.76 713.53 90.22 714.59 85.45 718.72 88.58 721.04 88.93 723.12 90.16 Z"
       fill-rule="evenodd"
       id="path357" />
    <path
       d="M 275.26 82.39 275.12 82.26 274.99 81.91 275.31 82.04 275.17 82.21 275.26 82.39 Z"
       id="path359" />
    <path
       d="M 367.72 39.21 368.13 40.71 370.05 42.13 367.76 43.6 358.48 45.83 355.26 45.51 351.14 44.38 350.79 41.32 347.26 39.91 349.96 39.03 354.56 41.18 358.21 39.61 359.59 40.2 363.44 39.69 364.48 38.88 365.91 39.73 367.72 39.21 Z"
       id="path361" />
    <path
       d="M 115.53 240.17 115.59 240.19 115.62 240.33 115.56 240.34 115.49 240.2 115.53 240.17 Z"
       id="path363" />
    <path
       d="M 69.31 225.56 68.41 225.56 68.38 225.11 68.93 225.14 69.31 225.56 Z"
       id="path365" />
    <path
       d="M 556.38 295.24 555.44 296.41 552.73 295.79 556.38 295.24 Z"
       id="path367" />
    <path
       d="M 522.81 196.6 522.93 196.51 523.09 196.65 523.06 196.8 522.91 196.64 522.81 196.6 Z"
       id="path369" />
    <path
       d="M 51.56 182.37 50.99 182.29 51.14 182.07 51.56 182.37 Z"
       id="path371" />
    <path
       d="M 779.92 170.53 779.86 170.56 779.7 170.59 779.63 170.62 779.55 170.6 779.92 170.53 Z"
       id="path373" />
    <path
       d="M 264.78 162.58 264.79 163.82 263.77 163.46 263.45 162.47 264.78 162.58 Z"
       id="path375" />
    <path
       d="M 263.42 159.22 263.42 159.52 263.11 159.5 263.29 159.17 263.42 159.22 Z"
       id="path377" />
    <path
       d="M 264.41 157.16 264.18 157.07 264.31 156.66 264.51 156.8 264.41 157.16 Z"
       id="path379" />
    <path
       d="M 268.27 157.12 267.87 157.29 267.77 156.83 268.27 157.12 Z"
       id="path381" />
    <path
       d="M 265.03 155.24 264.91 155.88 264.61 155.69 264.65 155.42 265.03 155.24 Z"
       id="path383" />
    <path
       d="M 263.98 152.6 263.7 151.86 264.1 151.77 263.98 152.6 Z"
       id="path385" />
    <path
       d="M 262.24 149.18 262.06 149.22 262.12 149.02 262.24 149.18 Z"
       id="path387" />
    <path
       d="M 262.82 148.51 262.95 148.24 263.2 148.41 263.17 148.62 262.82 148.51 Z"
       id="path389" />
    <path
       d="M 261.12 148.03 260.66 147.82 260.75 147.7 260.97 147.82 261.12 148.03 Z"
       id="path391" />
    <path
       d="M 256.89 146.95 256.19 147.09 256.42 146.86 256.89 146.95 Z"
       id="path393" />
    <path
       d="M 260.71 146.66 260.67 146.57 260.81 146.59 260.71 146.66 Z"
       id="path395" />
    <path
       d="M 254.52 145.78 253.34 146.56 251.01 146.48 251.26 145.24 254.52 145.78 Z"
       id="path397" />
    <path
       d="M 260.33 145.8 260.32 145.91 260.16 145.92 260.27 145.81 260.33 145.8 Z"
       id="path399" />
    <path
       d="M 256.73 145.5 256.67 145.43 256.89 145.4 256.84 145.48 256.73 145.5 Z"
       id="path401" />
    <path
       d="M 230.95 146.38 228.84 147.03 226.93 145.96 227.32 145.25 229.55 145.5 230.95 146.38 Z"
       id="path403" />
    <path
       d="M 220.15 143.4 220.15 143.54 219.78 143.5 219.82 143.37 220.15 143.4 Z"
       id="path405" />
    <path
       d="M 256.63 114.53 256.56 114.61 256.59 114.66 256.46 114.74 256.5 114.63 256.63 114.53 Z"
       id="path407" />
    <path
       d="M 563.45 303.94 563.1 304.11 562.71 304 562.62 303.71 563.22 303.79 563.45 303.94 Z"
       id="path409" />
    <path
       d="M 387.32 221.52 387.45 221.68 387.22 221.76 387.32 221.52 Z"
       id="path411" />
    <path
       d="M 528.11 231.08 527.84 231.65 527.14 231.53 527.53 230.64 528.11 231.08 Z"
       id="path413" />
    <path
       d="M 496.35 212.47 495.9 212.46 495.93 211.49 496.35 212.47 Z"
       id="path415" />
    <path
       d="M 414.81 185.38 414.94 185.79 414.44 186.2 414.32 185.79 414.81 185.38 Z"
       id="path417" />
    <path
       d="M 348 153 347.52 153.19 347.27 152.66 347.47 152.46 348 153 Z"
       id="path419" />
    <path
       d="M 432.25 106.77 432.2 106.97 431.79 106.79 431.98 106.6 432.25 106.77 Z"
       id="path421" />
    <path
       d="M 395.38 77.15 395.51 77.35 395.03 77.18 395.38 77.15 Z"
       id="path423" />
    <path
       d="M 394.28 76.63 394.38 76.76 394.08 76.77 394.28 76.63 Z"
       id="path425" />
    <path
       d="M 389.78 66.52 389.56 66.16 390.32 65.72 390.44 66.01 389.78 66.52 Z"
       id="path427" />
    <path
       d="M 383.99 48.55 384.06 48.24 384.8 48.6 385.11 48.85 385.07 49.06 384.41 48.67 383.99 48.55 Z"
       id="path429" />
    <path
       d="M 560.64 202.64 560.67 202.65 560.56 202.74 560.55 202.68 560.56 202.55 560.54 202.5 560.44 202.44 560.42 202.39 560.56 202.49 560.57 202.54 560.56 202.73 560.64 202.64 Z"
       id="path431" />
    <path
       d="M 630.45 183.2 630.19 183.47 629.75 183.38 630.1 183.07 630.45 183.2 Z"
       id="path433" />
    <path
       d="M 772.36 250.56 772.37 250.66 772.24 250.67 772.24 250.52 772.36 250.56 Z"
       id="path435" />
    <path
       d="M 45.78 233.21 45.9 233.25 45.9 233.37 45.7 233.34 45.78 233.21 Z"
       id="path437" />
    <path
       d="M 11.94 233.08 11.75 233.4 11.36 233.19 11.53 233.05 11.74 233.18 11.94 233.08 Z"
       id="path439" />
    <path
       d="M 5.12 217.83 5.19 217.91 5.11 217.98 5.04 217.91 5.12 217.83 Z"
       id="path441" />
    <path
       d="M 18.29 216.39 17.57 216.86 17.07 216.36 17.92 216.1 18.29 216.39 Z"
       id="path443" />
    <path
       d="M 754.36 205.13 752.11 203.94 753.34 203.96 754.32 204.72 754.36 205.13 Z"
       id="path445" />
    <path
       d="M 797.21 205.2 797.24 205.15 797.27 205.16 797.21 205.2 Z"
       id="path447" />
    <path
       d="M 563.03 176.88 563.01 177.01 562.95 177 563.03 176.88 Z"
       id="path449" />
    <path
       d="M 770.05 187.37 770.09 187.43 770 187.49 769.99 187.39 770.05 187.37 Z"
       id="path451" />
    <path
       d="M 750.88 170.91 750.66 171.23 750.51 170.98 750.88 170.91 Z"
       id="path453" />
    <path
       d="M 320.4 307.43 319.97 307.87 319.17 307.1 319.62 306.54 320.4 307.43 Z"
       id="path455" />
    <path
       d="M 271.84 300.8 269.97 301.38 269.44 299.88 271.64 300.1 271.84 300.8 Z"
       id="path457" />
    <path
       d="M 770.5 220.7 769.72 220.96 769.13 219.14 770.12 219.47 770.5 220.7 Z"
       id="path459" />
    <path
       d="M 23.5 228.29 23.62 228.48 23.39 228.69 23.28 228.56 23.5 228.29 Z"
       id="path461" />
    <path
       d="M 21.86 217.88 21.49 218.11 21.32 218 21.7 217.85 21.86 217.88 Z"
       id="path463" />
    <path
       d="M 698.47 169.18 698.35 169.84 698.14 169.8 698.47 169.18 Z"
       id="path465" />
    <path
       d="M 721.16 156.06 721.21 156.33 720.99 156.49 720.88 156.85 720.65 156.51 721.16 156.06 Z"
       id="path467" />
    <path
       d="M 723.16 152.46 723.05 152.75 722.96 152.6 723.16 152.46 Z"
       id="path469" />
    <path
       d="M 512.06 128.25 512.2 128.43 512.17 129 511.85 128.71 512.06 128.25 Z"
       id="path471" />
    <path
       d="M 157.91 163.45 157.9 163.5 157.86 163.44 157.91 163.45 Z"
       id="path473" />
    <path
       d="M 651.72 137.18 651.74 137.27 651.7 137.31 651.67 137.18 651.72 137.18 Z"
       id="path475" />
    <path
       d="M 248.8 159.19 248.81 159.43 248.69 159.63 248.6 159.25 248.8 159.19 Z"
       id="path477" />
    <path
       d="M 260.36 147.45 260.47 147.54 260.39 147.58 260.36 147.45 Z"
       id="path479" />
    <path
       d="M 259.82 147.18 259.85 147.22 259.82 147.26 259.79 147.24 259.82 147.18 Z"
       id="path481" />
    <path
       d="M 415.95 68.32 415.62 70.27 413.73 72.17 413.29 73.85 410.56 72.2 409.45 72.48 408.96 71.25 410.89 69.07 412.39 68.19 414.92 67.84 415.95 68.32 Z"
       id="path483" />
    <path
       d="M 614.65 213.27 614.64 213.26 614.63 213.2 614.62 213.14 614.64 213.14 614.65 213.22 614.65 213.27 Z"
       id="path485" />
    <path
       d="M 634.31 209.39 634.3 209.6 634.14 209.56 634.31 209.39 Z"
       id="path487" />
    <path
       d="M 24.18 149.23 24.17 149.22 24.2 149.21 24.23 149.21 24.18 149.23 Z"
       id="path489" />
    <path
       d="M 45.27 187.11 45.31 187.1 45.31 187.13 45.28 187.14 45.27 187.11 Z"
       id="path491" />
    <path
       d="M 8.81 185.85 8.8 185.86 8.8 185.85 8.81 185.84 8.81 185.85 Z"
       id="path493" />
    <path
       d="M 8.46 184.53 8.45 184.5 8.46 184.5 8.46 184.53 Z"
       id="path495" />
    <path
       d="M 769.34 143.56 769.38 143.55 769.39 143.58 769.34 143.56 Z"
       id="path497" />
    <path
       d="M 6.81 123.81 6.81 123.78 6.86 123.77 6.81 123.81 Z"
       id="path499" />
    <path
       d="M 233.7 145.48 233.73 145.48 233.74 145.52 233.71 145.52 233.7 145.48 Z"
       id="path501" />
    <path
       d="M 40.77 173.24 40.76 173.27 40.7 173.27 40.71 173.24 40.77 173.24 Z"
       id="path503" />
    <path
       d="M 40.01 172 40.05 172 40.05 172.03 40.01 172.03 40.01 172 Z"
       id="path505" />
    <path
       d="M 17.67 205.27 17.64 205.23 17.64 205.22 17.66 205.25 17.67 205.27 Z"
       id="path507" />
    <path
       d="M 783.27 276.02 783.95 277.78 785.73 277.31 786.14 279.05 782.37 283.14 779.82 284.37 778.39 287.98 776.02 289.47 773.71 289.55 771.73 288.6 769.66 288.67 769.05 287.76 770.63 285.86 773.15 284.02 776.24 282.79 779.32 280.64 781.5 276.86 783.27 276.02 Z M 783.66 262.51 786.96 265.13 787.52 267.86 789.87 268.08 790.13 269.65 792.67 270.51 795.18 269.49 795.22 271.66 794.31 272.87 792.14 273.67 791.99 275.29 790.06 277.66 788.65 278.46 787.05 277.76 788.23 276.39 787.84 274.71 785.22 273.55 786.98 272.32 787.58 269.94 786.6 267.72 783.71 264.3 783.66 262.51 Z"
       fill-rule="evenodd"
       id="path509" />
  </g>
</svg>
